<svg width="135" height="78" viewBox="0 0 135 78" fill="none" xmlns="http://www.w3.org/2000/svg">
<path d="M63.5923 57.4346L72.0659 77.5359H68.9941L66.2399 70.9801H58.5252L55.6788 77.5359H54.1562L62.8456 57.4346H63.5899H63.5923ZM59.0586 69.6976H65.6919L62.4213 61.9296L59.0586 69.6976Z" fill="black"/>
<path d="M74.5391 57.8838H76.2289L88.0361 72.2416H88.1574V57.8838H89.4811V77.9997H88.7805L75.9986 62.0175H75.8919V77.5366H74.5391V57.8862V57.8838Z" fill="black"/>
<path d="M108.472 57.8838V59.1445H101.945V77.5342H98.9173V59.1445H92.3906V57.8838H108.472Z" fill="black"/>
<path d="M111.371 57.8838H114.399V77.5342H111.371V57.8838Z" fill="black"/>
<path d="M126.262 57.4346L134.735 77.5359H131.664L128.909 70.9801H121.195L118.351 77.5359H116.828L125.517 57.4346H126.262ZM121.728 69.6976H128.361L125.091 61.9296L121.728 69.6976Z" fill="black"/>
<path d="M9.43608 57.4346L17.9096 77.5359H14.8378L12.0836 70.9801H4.36892L1.52257 77.5359H0L8.68934 57.4346H9.43365H9.43608ZM4.89988 69.6976H11.5333L8.26263 61.9296L4.89988 69.6976Z" fill="black"/>
<path d="M36.3142 63.5013C35.8172 62.2794 35.0729 61.1956 34.0813 60.2574C33.2157 59.4282 32.1392 58.8245 30.8518 58.4487C29.562 58.0729 28.0225 57.8838 26.2235 57.8838H20.332V77.5342H26.946C28.5656 77.5342 30.0057 77.2748 31.2664 76.7535C32.5223 76.2323 33.5818 75.5195 34.4352 74.6127C35.2911 73.706 35.9408 72.6416 36.3894 71.4245C36.8379 70.2074 37.0585 68.9055 37.0585 67.5259C37.0585 66.0664 36.8112 64.7257 36.3142 63.5013ZM33.3563 71.2499C32.9708 72.307 32.4472 73.1968 31.7804 73.9145C31.1137 74.6345 30.3354 75.1752 29.4384 75.5413C28.5413 75.905 27.5812 76.0892 26.5557 76.0892H23.3626V59.3433H26.5896C27.6564 59.3433 28.6383 59.5446 29.5402 59.947C30.4421 60.3519 31.2179 60.9192 31.8677 61.6466C32.515 62.3788 33.0242 63.2467 33.3903 64.2626C33.7564 65.2736 33.9382 66.384 33.9382 67.5914C33.9382 68.9758 33.7443 70.1953 33.3588 71.2499H33.3563Z" fill="black"/>
<path d="M41.2745 57.8838L48.0607 73.5168L54.3886 57.8838H55.819L47.6315 77.9997H46.8557L38.0742 57.8838H41.2721H41.2745Z" fill="black"/>
<path d="M35.1653 6.16804C35.1653 6.16804 32.7472 4.48676 31.5433 3.80599C24.4956 -0.180608 16.2749 -1.43383 9.11355 3.16649C2.5567 7.38517 -0.946494 15.74 0.422747 23.3831C3.11473 38.427 17.7992 47.1119 32.4061 45.9825C38.002 45.5493 43.6701 44.162 48.837 41.8308C51.4567 40.6498 53.9678 39.2213 56.2981 37.5451C57.4968 36.6839 58.6439 35.7607 59.7393 34.7756C60.566 34.0278 62.4054 31.9133 62.4054 31.9133C62.4054 31.9133 43.3136 39.2264 33.6307 38.886C28.4018 38.7004 23.116 37.2254 18.9618 34.0485C14.8075 30.8716 11.8779 25.8793 11.914 20.6549C12.0432 2.51151 35.1653 6.16804 35.1653 6.16804Z" fill="black"/>
<path d="M99.9472 40.1382C99.9472 40.1382 102.365 41.8195 103.569 42.5003C110.617 46.4817 118.843 47.7401 125.999 43.1346C132.561 38.9159 136.059 30.5611 134.695 22.9231C131.998 7.87409 117.313 -0.805663 102.706 0.323788C97.1105 0.757002 91.4424 2.14432 86.2754 4.47542C83.6558 5.65645 81.1447 7.08502 78.8144 8.76115C77.6156 9.62242 76.4686 10.5456 75.3732 11.5306C74.5465 12.2784 72.707 14.3929 72.707 14.3929C72.707 14.3929 91.7989 7.07986 101.482 7.42025C106.711 7.60591 111.996 9.0809 116.151 12.2578C120.305 15.4347 123.235 20.427 123.198 25.6513C123.069 43.7948 99.9472 40.1382 99.9472 40.1382Z" fill="black"/>
<path d="M31.2695 0.37086C31.2695 0.37086 40.7767 -4.42544 70.3058 20.4792C99.8349 45.3839 103.844 46.2812 103.844 46.2812C103.844 46.2812 90.4879 47.8181 63.8161 26.1162C37.1444 4.41419 37.5577 2.19655 31.2695 0.37086Z" fill="black"/>
</svg>
