<svg width="245" height="201" viewBox="0 0 245 201" fill="none" xmlns="http://www.w3.org/2000/svg">
<path d="M0.00050354 182.875L235.543 182.875L235.543 10.7578L0.00050354 10.7578L0.00050354 182.875Z" fill="#E7D5FF"/>
<path d="M210.059 21.5147V0" stroke="white" stroke-miterlimit="10"/>
<path d="M191.605 21.5147V0" stroke="white" stroke-miterlimit="10"/>
<path d="M173.152 21.5147V0" stroke="white" stroke-miterlimit="10"/>
<path d="M154.691 21.5147V0" stroke="white" stroke-miterlimit="10"/>
<path d="M136.219 21.5147V0" stroke="white" stroke-miterlimit="10"/>
<path d="M117.766 21.5147V0" stroke="white" stroke-miterlimit="10"/>
<path d="M99.3125 21.5147V0" stroke="white" stroke-miterlimit="10"/>
<path d="M80.8555 21.5147V0" stroke="white" stroke-miterlimit="10"/>
<path d="M62.3828 21.5147V0" stroke="white" stroke-miterlimit="10"/>
<path d="M43.9258 21.5147V0" stroke="white" stroke-miterlimit="10"/>
<path d="M25.4727 21.5147V0" stroke="white" stroke-miterlimit="10"/>
<path d="M213.461 46.9453H22.1094V200.001H213.461V46.9453Z" fill="white" stroke="#4B256E" stroke-miterlimit="10"/>
<path d="M65.267 118.165C81.1178 118.165 93.9675 105.315 93.9675 89.4642C93.9675 73.6134 81.1178 60.7637 65.267 60.7637C49.4161 60.7637 36.5664 73.6134 36.5664 89.4642C36.5664 105.315 49.4161 118.165 65.267 118.165Z" stroke="#4B256E" stroke-miterlimit="10"/>
<path d="M195.597 133.09H126.793V180.895H195.597V133.09Z" stroke="#4B256E" stroke-miterlimit="10"/>
<path d="M146.339 164.973H61.1406V83.9492L146.339 164.973Z" fill="white" stroke="#4B256E" stroke-miterlimit="10"/>
<path d="M196.848 107.572L128.001 107.572L128.001 60.24" fill="white"/>
<path d="M196.848 107.572L128.001 107.572L128.001 60.24" stroke="#4B256E" stroke-miterlimit="10"/>
<path d="M227.443 107.241C227.443 109.061 225.937 110.551 224.097 110.551H204.019C202.179 110.551 200.673 109.061 200.673 107.241C200.673 105.42 202.179 103.931 204.019 103.931H224.097C225.937 103.931 227.443 105.42 227.443 107.241ZM217.404 113.861H210.712C208.871 113.861 207.365 115.35 207.365 117.171C207.365 118.991 208.871 120.48 210.712 120.48H217.404C219.245 120.48 220.751 118.991 220.751 117.171C220.751 115.35 219.245 113.861 217.404 113.861ZM244.175 64.2114C244.342 74.4722 239.055 84.0711 230.254 89.5325L227.443 98.3701C226.975 99.7933 225.603 100.687 224.097 100.621H204.019C202.58 100.621 201.309 99.7271 200.84 98.3701L197.862 89.5325C189.061 84.0711 183.774 74.4722 183.941 64.2114C183.941 47.761 197.427 34.4219 214.058 34.4219C230.689 34.4219 244.175 47.761 244.175 64.2114ZM234.136 64.2114C234.035 54.778 227.477 46.6025 218.207 44.3517C216.367 43.8883 214.493 45.0137 214.058 46.8673C213.59 48.6877 214.727 50.5413 216.601 50.9716C222.792 52.4942 227.209 57.8894 227.477 64.2114C227.477 66.0319 228.982 67.5213 230.823 67.5213C232.663 67.5213 234.169 66.0319 234.169 64.2114H234.136Z" fill="#9747FF"/>
</svg>
