<svg width="256" height="201" viewBox="0 0 256 201" fill="none" xmlns="http://www.w3.org/2000/svg">
<path d="M1.52588e-05 167L227 167L227 10L1.52588e-05 10L1.52588e-05 167Z" fill="#E7D5FF"/>
<path d="M202.441 20.7344V0" stroke="#9747FF" stroke-miterlimit="10"/>
<path d="M184.656 20.7344V0" stroke="#9747FF" stroke-miterlimit="10"/>
<path d="M166.871 20.7344V0" stroke="#9747FF" stroke-miterlimit="10"/>
<path d="M149.082 20.7344V0" stroke="#9747FF" stroke-miterlimit="10"/>
<path d="M131.277 20.7344V0" stroke="#9747FF" stroke-miterlimit="10"/>
<path d="M113.496 20.7344V0" stroke="#9747FF" stroke-miterlimit="10"/>
<path d="M95.7109 20.7344V0" stroke="#9747FF" stroke-miterlimit="10"/>
<path d="M77.9219 20.7344V0" stroke="#9747FF" stroke-miterlimit="10"/>
<path d="M60.1211 20.7344V0" stroke="#9747FF" stroke-miterlimit="10"/>
<path d="M42.332 20.7344V0" stroke="#9747FF" stroke-miterlimit="10"/>
<path d="M24.5508 20.7344V0" stroke="#9747FF" stroke-miterlimit="10"/>
<path d="M207 40H20V200H207V40Z" fill="white" stroke="#4B256E" stroke-miterlimit="10"/>
<path d="M62.1768 119.6C77.6672 119.6 90.2247 107.042 90.2247 91.5518C90.2247 76.0614 77.6672 63.5039 62.1768 63.5039C46.6864 63.5039 34.1289 76.0614 34.1289 91.5518C34.1289 107.042 46.6864 119.6 62.1768 119.6Z" stroke="#4B256E" stroke-miterlimit="10"/>
<path d="M189.54 134.185H122.301V180.904H189.54V134.185Z" stroke="#4B256E" stroke-miterlimit="10"/>
<path d="M141.405 165.344H58.1445V86.1621L141.405 165.344Z" fill="white" stroke="#4B256E" stroke-miterlimit="10"/>
<path d="M190.766 109.249L123.484 109.249L123.484 62.9926" fill="white"/>
<path d="M190.766 109.249L123.484 109.249L123.484 62.9926" stroke="#4B256E" stroke-miterlimit="10"/>
<path d="M240.443 107.692C240.443 109.385 239.043 110.769 237.332 110.769H218.668C216.957 110.769 215.557 109.385 215.557 107.692C215.557 106 216.957 104.615 218.668 104.615H237.332C239.043 104.615 240.443 106 240.443 107.692ZM231.111 113.846H224.889C223.178 113.846 221.779 115.231 221.779 116.923C221.779 118.615 223.178 120 224.889 120H231.111C232.822 120 234.221 118.615 234.221 116.923C234.221 115.231 232.822 113.846 231.111 113.846ZM255.996 67.6923C256.152 77.2308 251.237 86.1538 243.056 91.2308L240.443 99.4462C240.007 100.769 238.732 101.6 237.332 101.538H218.668C217.33 101.538 216.148 100.708 215.713 99.4462L212.944 91.2308C204.763 86.1538 199.848 77.2308 200.004 67.6923C200.004 52.4 212.54 40 228 40C243.46 40 255.996 52.4 255.996 67.6923ZM246.664 67.6923C246.571 58.9231 240.474 51.3231 231.857 49.2308C230.146 48.8 228.404 49.8462 228 51.5692C227.565 53.2615 228.622 54.9846 230.364 55.3846C236.119 56.8 240.225 61.8154 240.474 67.6923C240.474 69.3846 241.874 70.7692 243.585 70.7692C245.296 70.7692 246.695 69.3846 246.695 67.6923H246.664Z" fill="#9747FF"/>
</svg>
