<svg width="168" height="161" viewBox="0 0 168 161" fill="none" xmlns="http://www.w3.org/2000/svg">
<g clip-path="url(#clip0_341_1132)">
<path d="M15.3149 32.3047C40.0684 -0.651658 91.3143 -10.2415 127.794 12.4404C163.816 34.8372 177.064 77.8975 162.311 118.3C148.379 156.449 111.673 171.564 85.2167 152.374C75.3064 145.185 71.4646 136.174 69.6076 121.537L68.7206 113.222L68.3384 109.877C67.3063 102.015 65.7204 98.4928 62.4103 96.6478C57.9024 94.1352 54.9008 94.0765 48.9817 96.3705L46.0265 97.596L44.5221 98.252C35.9895 101.958 30.3134 103.26 23.134 101.755L21.4486 101.358L20.0722 100.966C-3.40162 93.6922 -6.87845 61.8526 15.3149 32.3047ZM124.126 72.0488C125.63 77.6614 131.399 80.9921 137.011 79.4882C142.624 77.9843 145.954 72.2154 144.451 66.6029C142.947 60.9904 137.178 57.6596 131.565 59.1635C125.953 60.6674 122.622 66.4363 124.126 72.0488ZM128.289 101.412C129.792 107.024 135.561 110.355 141.174 108.851C146.786 107.347 150.117 101.578 148.613 95.9658C147.109 90.3533 141.341 87.0226 135.728 88.5264C130.115 90.0303 126.785 95.7993 128.289 101.412ZM107.473 46.7763C108.977 52.3888 114.746 55.7195 120.359 54.2156C125.971 52.7117 129.302 46.9428 127.798 41.3303C126.294 35.7178 120.525 32.3871 114.913 33.8909C109.3 35.3948 105.97 41.1638 107.473 46.7763ZM107.234 122.513C108.738 128.125 114.507 131.456 120.119 129.952C125.732 128.448 129.062 122.679 127.558 117.067C126.054 111.454 120.286 108.123 114.673 109.627C109.061 111.131 105.73 116.9 107.234 122.513ZM77.8012 38.5987C79.3051 44.2112 85.0741 47.5419 90.6866 46.038C96.2991 44.5342 99.6298 38.7652 98.1259 33.1527C96.6221 27.5402 90.8531 24.2095 85.2406 25.7133C79.6281 27.2172 76.2974 32.9862 77.8012 38.5987Z" fill="#9747FF"/>
</g>
<defs>
<clipPath id="clip0_341_1132">
<rect width="168" height="161" fill="white"/>
</clipPath>
</defs>
</svg>
