<svg width="269" height="65" viewBox="0 0 269 65" fill="none" xmlns="http://www.w3.org/2000/svg">
<path d="M28.1135 19.7421C26.7328 24.5785 22.9915 28.9189 14.5408 28.9189C4.85618 28.9189 0 22.194 0 14.4971C0 6.80024 5.36005 0 14.8502 0C23.1899 0 27.2764 4.59036 28.173 9.20453H22.2575C21.4838 7.19302 19.7501 4.5983 14.7828 4.5983C9.21643 4.5983 6.14561 8.79191 6.14561 14.2829C6.14561 19.7739 9.04583 24.3523 14.8225 24.3523C19.1787 24.3523 21.0276 22.5908 22.2456 19.7421H28.1095H28.1135Z" fill="black"/>
<path d="M31.1758 0.591797H36.9881V23.5991H52.9056L52.1161 28.3323H31.1758V0.591797Z" fill="black"/>
<path d="M82.7046 14.3662C82.7046 22.1028 77.5191 28.9189 67.6838 28.9189C58.4277 28.9189 52.9883 22.4916 52.9883 14.3821C52.9883 6.73279 58.6895 0 67.9337 0C77.1779 0 82.7046 6.76057 82.7046 14.3662ZM59.1379 14.2908C59.1379 19.7699 62.1135 24.2928 67.9893 24.2928C73.8651 24.2928 76.559 19.4406 76.559 14.4416C76.559 9.44258 73.7699 4.61813 67.7274 4.61813C61.685 4.61813 59.1379 9.2323 59.1379 14.2869V14.2908Z" fill="black"/>
<path d="M96.1978 18.5446C96.1978 25.9677 93.0397 28.9076 86.5331 28.9076C85.1048 28.9076 83.7876 28.8045 82.6172 28.6101V23.9483C83.4583 24.0911 84.6842 24.1625 85.7198 24.1625C88.9255 24.1625 90.3458 22.4526 90.3458 18.8541V0.591797H96.1978V18.5486V18.5446Z" fill="black"/>
<path d="M106.961 0.591797V16.303C106.961 22.643 110.437 24.3014 114.102 24.3014C118.201 24.3014 120.831 22.4684 120.831 16.303V0.591797H126.656V16.4339C126.656 25.0473 121.93 28.9195 113.928 28.9195C105.926 28.9195 101.133 25.2536 101.133 16.6323V0.591797H106.957H106.961Z" fill="black"/>
<path d="M137.714 17.2314V28.3284H131.941V0.591797H146.45C152.62 0.591797 156.325 3.57137 156.325 8.38787C156.325 11.8951 154.377 14.0891 151.422 14.9659C152.779 15.4341 155.607 16.6204 155.607 21.5599V22.8929C155.607 24.8687 155.58 27.0667 155.949 28.3323H149.974C149.525 27.1143 149.505 25.325 149.505 22.5795V21.663C149.505 18.4454 148.295 17.2353 143.991 17.2353H137.714V17.2314ZM137.714 12.7759H145.109C148.72 12.7759 150.366 11.4865 150.366 8.84017C150.366 6.38033 148.696 5.04726 145.197 5.04726H137.714V12.7759Z" fill="black"/>
<path d="M182.073 16.2355H166.219V23.6111H183.799L183.104 28.3323H160.395V0.591797H182.922V5.31309H166.223V11.5182H182.077V16.2395L182.073 16.2355Z" fill="black"/>
<path d="M187.715 30.3319L200.486 0.591797H205.446L192.642 30.3359H187.711L187.715 30.3319Z" fill="black"/>
<path d="M95.4455 55.0566C94.0648 59.8929 90.3235 64.2333 81.8728 64.2333C72.1882 64.2333 67.332 57.5085 67.332 49.8116C67.332 42.1147 72.6921 35.3145 82.1823 35.3145C90.5219 35.3145 94.6084 39.9048 95.505 44.519H89.5895C88.8159 42.5075 87.0821 39.9127 82.1148 39.9127C76.5485 39.9127 73.4776 44.1064 73.4776 49.5973C73.4776 55.0883 76.3779 59.6668 82.1545 59.6668C86.5108 59.6668 88.3596 57.9052 89.5776 55.0566H95.4415H95.4455Z" fill="black"/>
<path d="M128.752 49.6807C128.752 57.4172 123.566 64.2333 113.731 64.2333C104.475 64.2333 99.0352 57.806 99.0352 49.6965C99.0352 42.0472 104.736 35.3145 113.981 35.3145C123.225 35.3145 128.752 42.075 128.752 49.6807ZM105.181 49.6053C105.181 55.0844 108.156 59.6073 114.032 59.6073C119.908 59.6073 122.602 54.7551 122.602 49.756C122.602 44.757 119.813 39.9326 113.77 39.9326C107.728 39.9326 105.181 44.5468 105.181 49.6013V49.6053Z" fill="black"/>
<path d="M134.328 63.643V35.9024H141.243C148.536 46.7653 153.515 53.3672 155.201 56.5213H155.28C155.018 53.3831 155.054 48.4555 155.054 43.9088V35.8984H160.418V63.639H153.923C150.825 59.0526 141.303 44.8887 139.545 41.7028H139.466C139.688 45.1744 139.688 49.1141 139.688 54.0337V63.639H134.328V63.643Z" fill="black"/>
<path d="M178.26 53.8591C178.26 61.2822 175.102 64.2221 168.596 64.2221C167.167 64.2221 165.85 64.119 164.68 63.9246V59.2628C165.521 59.4056 166.747 59.477 167.782 59.477C170.988 59.477 172.408 57.7671 172.408 54.1686V35.9023H178.26V53.8591Z" fill="black"/>
<path d="M30.418 34.5772L35.3019 34.5098C35.3971 40.1555 39.6423 44.6268 45.1531 44.6982V54.8311C39.6741 54.8946 35.4051 59.3342 35.3099 64.9998L30.4299 64.9879C30.4616 57.0013 36.1629 50.705 43.8002 49.7488C36.2938 48.8482 30.5251 42.6986 30.418 34.5732" fill="black"/>
<path d="M45.7266 34.5772L50.6105 34.5098C50.7057 40.1555 54.9509 44.6268 60.4617 44.6982V54.8311C54.9827 54.8946 50.7137 59.3342 50.6185 64.9998L45.7385 64.9879C45.7702 57.0013 51.4715 50.705 59.1088 49.7488C51.6024 48.8482 45.8337 42.6986 45.7266 34.5732" fill="black"/>
<path d="M29.845 48.002H21.4102V51.8663H29.845V48.002Z" fill="black"/>
<path d="M184.512 63.8173V63.611C184.512 60.1989 186.896 55.6721 193.232 50.9825C198.045 47.4435 199.814 46.293 199.814 42.631C199.814 39.2983 197.553 36.6639 193.601 36.6639C189.65 36.6639 187.511 39.0484 186.856 42.8333H184.718C185.17 38.1835 188.257 34.6484 193.645 34.6484C199.529 34.6484 202.08 38.5961 202.08 42.4644C202.08 46.8643 200.104 48.5544 194.633 52.502C189.531 56.2037 187.559 59.5364 187.063 61.7978H203.353L202.941 63.8133H184.512V63.8173Z" fill="black"/>
<path d="M224.817 49.2127C224.817 55.7947 223.092 64.3089 215.399 64.3089C207.706 64.3089 206.02 56.493 206.02 49.419C206.02 42.345 208.198 34.6084 215.522 34.6084C222.846 34.6084 224.817 42.3846 224.817 49.2127ZM208.364 49.4626C208.364 54.7274 209.721 62.2974 215.399 62.2974C221.076 62.2974 222.516 55.386 222.516 49.2166C222.516 43.7058 221.243 36.6278 215.565 36.6278C209.888 36.6278 208.364 43.0869 208.364 49.4626Z" fill="black"/>
<path d="M227.781 63.8173V63.611C227.781 60.1989 230.166 55.6721 236.502 50.9825C241.314 47.4435 243.084 46.293 243.084 42.631C243.084 39.2983 240.822 36.6639 236.871 36.6639C232.919 36.6639 230.781 39.0484 230.126 42.8333H227.988C228.44 38.1835 231.527 34.6484 236.914 34.6484C242.798 34.6484 245.349 38.5961 245.349 42.4644C245.349 46.8643 243.373 48.5544 237.902 52.502C232.8 56.2037 230.828 59.5364 230.332 61.7978H246.623L246.21 63.8133H227.781V63.8173Z" fill="black"/>
<path d="M264.886 40.8215C264.104 38.2307 262.501 36.6239 259.208 36.5842C253.039 36.5009 251.555 43.1662 251.476 49.2127C252.753 46.5386 255.261 44.6897 259.415 44.6897C264.802 44.6897 268.095 48.5144 268.095 54.1085C268.095 59.167 265.382 64.3089 258.962 64.3089C251.638 64.3089 249.254 58.5084 249.254 49.8713C249.254 42.7536 251.353 34.6084 259.208 34.6084C264.596 34.6084 266.655 38.0244 267.108 40.8215H264.886ZM265.83 54.2751C265.83 50.6965 264.104 46.7489 259.208 46.7489C254.681 46.7489 251.968 49.5062 251.968 54.1522C251.968 56.6636 253.162 62.337 259.002 62.337C263.446 62.337 265.83 58.7584 265.83 54.2751Z" fill="black"/>
</svg>
