<svg width="304" height="174" viewBox="0 0 304 174" fill="none" xmlns="http://www.w3.org/2000/svg">
<path d="M9.32812 35.1593H115.374L66.3811 102.849H9.32812C9.32812 102.849 9.32812 34.8384 9.32812 35.1593Z" stroke="black" stroke-width="2" stroke-miterlimit="10"/>
<path d="M109.416 170.535H3.375L52.3675 102.846H109.416C109.416 102.846 109.416 170.856 109.416 170.535Z" stroke="black" stroke-width="2" stroke-miterlimit="10"/>
<path d="M204.248 35.1602H140.941V170.534H204.248V35.1602Z" stroke="black" stroke-width="2" stroke-miterlimit="10"/>
<path d="M301.134 2.34766H237.828V170.534H301.134V2.34766Z" stroke="black" stroke-width="2" stroke-miterlimit="10"/>
<path d="M303.59 0H298.523V5.06688H303.59V0Z" fill="black"/>
<path d="M206.899 168.051H201.832V173.118H206.899V168.051Z" fill="black"/>
<path d="M206.899 32.5117H201.832V37.5786H206.899V32.5117Z" fill="black"/>
<path d="M240.254 0H235.188V5.06688H240.254V0Z" fill="black"/>
<path d="M143.559 168.051H138.492V173.118H143.559V168.051Z" fill="black"/>
<path d="M240.254 168.051H235.188V173.118H240.254V168.051Z" fill="black"/>
<path d="M303.59 168.051H298.523V173.118H303.59V168.051Z" fill="black"/>
<path d="M143.559 32.5117H138.492V37.5786H143.559V32.5117Z" fill="black"/>
<path d="M11.8247 32.5117H6.75781V37.5786H11.8247V32.5117Z" fill="black"/>
<path d="M5.06687 168.051H0V173.118H5.06687V168.051Z" fill="black"/>
<path d="M118.649 32.5117H113.582V37.5786H118.649V32.5117Z" fill="black"/>
<path d="M111.895 168.051H106.828V173.118H111.895V168.051Z" fill="black"/>
<path d="M111.895 100.492H106.828V105.559H111.895V100.492Z" fill="black"/>
<path d="M11.8247 100.492H6.75781V105.559H11.8247V100.492Z" fill="black"/>
</svg>
