<svg width="273" height="83" viewBox="0 0 273 83" fill="none" xmlns="http://www.w3.org/2000/svg">
<path d="M238.266 0.0107422C245.438 0.00119699 252.578 0.974976 259.486 2.90527C260.062 3.07101 260.552 3.45155 260.855 3.96777C261.159 4.48402 261.253 5.0971 261.118 5.68066L256.874 24.834C256.656 25.7371 255.851 26.3896 254.915 26.3896H248.853C248.584 26.387 248.318 26.3305 248.071 26.2227C247.824 26.1147 247.601 25.9578 247.416 25.7617C247.231 25.5657 247.088 25.3338 246.995 25.0811C246.902 24.8283 246.86 24.5591 246.873 24.29V23.9307C247.167 17.695 243.217 13.0156 234.293 13.0156C219.449 13.0158 208.665 25.204 207.25 41.2012C205.781 57.7205 217.327 67.3182 233.313 67.3184C241.53 67.3184 247.994 65.7297 251.65 64.5762C251.981 64.4721 252.333 64.4557 252.672 64.5283C253.01 64.6009 253.324 64.7601 253.583 64.9902C253.842 65.2204 254.037 65.5139 254.148 65.8418C254.26 66.1697 254.284 66.5212 254.219 66.8613L252.336 76.7646C252.259 77.1827 252.069 77.5723 251.787 77.8906C251.505 78.2087 251.142 78.444 250.736 78.5713C247.471 79.6052 238.265 82.0537 224.184 82.0537C190.731 82.0537 177.16 62.8133 179.271 43.2031C181.132 25.7368 192.69 0.0108824 238.255 0L238.266 0.0107422ZM105.924 1.2627C106.223 1.26242 106.518 1.32915 106.788 1.45801C107.058 1.58682 107.296 1.77419 107.483 2.00684C107.671 2.2396 107.805 2.51168 107.874 2.80273C107.943 3.09382 107.946 3.3971 107.883 3.68945L106.762 8.73828C106.669 9.15334 106.448 9.52903 106.129 9.81055C105.81 10.0918 105.411 10.2652 104.988 10.3057L104.748 10.3271C102.267 10.6537 97.7941 11.4592 94.1269 14.332L66.8125 37.0547L87.8369 65.501C91.9176 70.7461 93.9202 71.6934 98.0117 71.7588C98.3262 71.7655 98.6357 71.8425 98.917 71.9834C99.1982 72.1243 99.4449 72.3263 99.6386 72.5742C99.8322 72.8221 99.9683 73.1101 100.037 73.417C100.106 73.7238 100.105 74.042 100.036 74.3486L98.8935 79.4639C98.7967 79.9022 98.5531 80.2942 98.2031 80.5752C97.8528 80.8562 97.4168 81.0093 96.9677 81.0088H80.5781C62.4482 81.0196 57.4535 73.0644 42.3379 45.4775L37.9296 65.6104C37.2551 68.7226 39.8785 70.3984 41.8046 71.1602L42.0439 71.2695C42.4847 71.4444 42.8491 71.7701 43.0722 72.1885C43.2954 72.607 43.3631 73.0912 43.2627 73.5547L41.957 79.4639C41.7611 80.3562 40.9552 81.0088 40.0302 81.0088H2.08297C1.77133 81.0078 1.46337 80.937 1.18258 80.8018C0.901942 80.6665 0.654922 80.4705 0.459923 80.2275C0.264897 79.9845 0.1269 79.7008 0.0556263 79.3975C-0.0155855 79.0941 -0.0186786 78.7781 0.0478138 78.4736L1.15817 73.4238C1.25515 72.9728 1.49264 72.5639 1.83688 72.2568C2.18103 71.9498 2.61425 71.7609 3.0732 71.7158H3.18258C6.64317 71.324 10.2883 69.1139 12.541 58.373L21.1601 18.9785C22.2699 13.7335 19.6365 11.7312 17.373 10.8389L17.0136 10.7305C16.5112 10.5606 16.0891 10.2108 15.8281 9.74902C15.5671 9.2873 15.486 8.7456 15.5996 8.22754L16.7744 2.95996C16.883 2.47824 17.1524 2.04776 17.538 1.73926C17.9236 1.4308 18.4027 1.263 18.8964 1.2627L54.9834 1.27344C55.2781 1.2731 55.569 1.33875 55.8349 1.46582C56.101 1.593 56.3356 1.77808 56.5205 2.00781C56.7054 2.23761 56.836 2.50678 56.9033 2.79395C56.9705 3.08089 56.9726 3.3792 56.9091 3.66699L55.7558 8.8584C55.6735 9.23068 55.4941 9.57462 55.2363 9.85547C54.9783 10.1364 54.6502 10.3443 54.2861 10.458L54.0146 10.5449C52.7611 10.8963 51.6219 11.571 50.7109 12.501C49.7999 13.4311 49.1485 14.5841 48.8232 15.8447L44.0351 37.7617L72.0361 14.4951C73.7114 13.1241 73.2871 11.2636 71.3505 10.5127C70.8234 10.3552 70.3753 10.0036 70.0966 9.5293C69.818 9.05481 69.7293 8.49224 69.8486 7.95508L70.958 2.94922C71.0661 2.47218 71.3334 2.04554 71.7148 1.73926C72.0961 1.43318 72.5696 1.26536 73.0586 1.2627H105.924ZM182.722 1.2627C183.02 1.26281 183.314 1.32885 183.583 1.45703C183.852 1.58527 184.089 1.77251 184.276 2.00391C184.464 2.23523 184.597 2.50547 184.667 2.79492C184.737 3.08451 184.741 3.38626 184.68 3.67773L180.327 23.2666C180.131 24.1807 179.326 24.834 178.39 24.834H172.002C171.72 24.8343 171.44 24.7744 171.183 24.6592C170.925 24.5439 170.694 24.3757 170.506 24.165C170.318 23.9543 170.176 23.7057 170.091 23.4365C170.005 23.1674 169.979 22.883 170.011 22.6025L170.032 22.3418C170.359 17.3577 168.65 14.419 163.046 14.4189L145.721 14.4521L141.074 35.5635H165.886C166.187 35.5608 166.485 35.627 166.757 35.7559C167.029 35.8847 167.268 36.0732 167.456 36.3076C167.645 36.5422 167.777 36.817 167.845 37.1104C167.912 37.4036 167.912 37.7087 167.845 38.002L165.439 48.8838C165.222 49.7869 164.417 50.4403 163.481 50.4404H137.776C137.759 50.5173 134.936 63.3921 134.839 63.9346C133.881 68.1243 136.732 70.2897 138.647 71.2256C138.745 71.2737 138.843 71.321 138.941 71.3672C139.337 71.5466 139.658 71.8561 139.853 72.2441C140.047 72.6324 140.101 73.0761 140.008 73.5L138.702 79.4531C138.495 80.3562 137.69 81.0087 136.754 81.0088H106.533C106.236 81.0095 105.942 80.9437 105.674 80.8154C105.406 80.6871 105.169 80.4995 104.983 80.2676C104.797 80.0356 104.666 79.7644 104.599 79.4746C104.532 79.1848 104.53 78.883 104.596 78.5928L117.764 18.957C119.102 13.69 116.023 11.546 113.803 10.708L113.585 10.6211C113.108 10.4523 112.709 10.1142 112.464 9.6709C112.219 9.22765 112.145 8.70965 112.257 8.21582L113.422 2.95996C113.53 2.48004 113.797 2.05048 114.181 1.74219C114.564 1.43389 115.041 1.2654 115.533 1.2627H182.722ZM267.982 4.16699C270.298 4.16699 272.29 6.11598 272.417 8.50488C272.543 10.8937 270.758 12.8418 268.442 12.8418C266.121 12.8416 264.136 10.8935 264.009 8.50488C263.882 6.11614 265.667 4.16724 267.982 4.16699ZM268.014 4.75684C266.011 4.75708 264.471 6.43879 264.58 8.50488C264.69 10.5709 266.408 12.2518 268.411 12.252C270.414 12.252 271.955 10.571 271.846 8.50488C271.736 6.43864 270.017 4.75684 268.014 4.75684ZM268.15 6.03418C269.173 6.03418 269.816 6.48084 269.869 7.47363C269.906 8.17465 269.618 8.634 269.083 8.75195C269.606 8.85749 269.885 9.248 269.912 9.7627L269.973 10.8984H269.353L269.295 9.8125C269.264 9.22961 269.012 9.00597 268.417 9.00586H267.273L267.374 10.8984H266.755L266.497 6.03418H268.15ZM267.244 8.44727H268.303V8.4541C268.946 8.4541 269.276 8.19306 269.238 7.47949C269.203 6.82205 268.853 6.57431 268.18 6.57422H267.145L267.244 8.44727Z" fill="black"/>
</svg>
