<svg width="415" height="51" viewBox="0 0 415 51" fill="none" xmlns="http://www.w3.org/2000/svg">
<path d="M154.478 5.76465L145.123 37.3539L135.568 5.76465H127.139L120.832 45.6042H127.535L132.314 14.7533L141.67 45.6042H148.306L157.666 14.7533L162.442 45.6042H169.214L162.972 5.76465H154.478Z" fill="black"/>
<path d="M209.368 5.76465L200.013 37.3539L190.458 5.76465H182.029L175.723 45.6042H182.425L187.205 14.7533L196.56 45.6042H203.196L212.556 14.7533L217.332 45.6042H224.104L217.862 5.76465H209.368Z" fill="black"/>
<path d="M250.973 22.8171V28.3437H256.954V39.3691C255.357 40.0417 253.57 40.3097 251.113 40.3097C243.349 40.3097 237.378 34.5433 237.378 25.6912C237.378 16.8391 243.154 11.2697 251.113 11.2697C255.427 11.2697 259.476 12.8125 262.264 15.4278V8.11832C259.081 6.17576 255.231 5.09863 250.782 5.09863C239.105 5.09863 230.41 13.4805 230.41 25.6862C230.41 37.8921 238.704 46.2739 250.982 46.2739C255.827 46.2739 260.607 45.2676 263.726 43.3247V22.8171H250.973Z" fill="black"/>
<path d="M295.771 40.5735C294.909 40.5735 293.513 40.5072 292.252 40.3757V28.3672H296.501C301.877 28.3672 305.391 30.0421 305.391 34.3363C305.391 38.6306 302.137 40.5735 295.771 40.5735ZM292.252 11.0675C293.313 10.9358 294.839 10.7994 295.966 10.7994C300.811 10.7994 303.794 12.6762 303.794 16.5659C303.794 20.6584 300.941 22.803 295.431 22.803H292.247V11.0675H292.252ZM302.803 25.0842C307.248 24.4117 310.501 21.0629 310.501 16.1663C310.501 8.52282 304.925 5.09863 295.57 5.09863C292.587 5.09863 288.533 5.50313 285.68 5.90294V45.4745C288.268 45.8741 291.721 46.2128 294.905 46.2128C307.183 46.2128 312.223 41.655 312.223 34.6751C312.223 28.9082 308.444 25.5545 302.799 25.0842" fill="black"/>
<path d="M336.193 40.9064C334.997 41.1086 333.605 41.2402 332.609 41.2402C328.625 41.2402 325.842 40.0361 325.842 36.9459C325.842 33.8558 328.83 32.5903 333.405 32.5903H336.193V40.9064ZM331.618 15.2246C327.969 15.2246 324.65 16.1654 322.063 17.6375V23.4039C324.52 21.9976 327.173 20.9913 330.557 20.9913C333.94 20.9913 336.198 22.4683 336.198 25.6856V28.169H332.944C324.45 28.169 319.34 31.1182 319.34 37.1526C319.34 43.8601 324.916 46.2075 332.544 46.2075C335.863 46.2075 339.842 45.7372 342.63 45.0033V25.3513C342.63 17.9056 338.05 15.2246 331.613 15.2246" fill="black"/>
<path d="M366.33 15.2246C362.015 15.2246 356.975 16.1654 352.855 17.774V45.6052H359.427V22.1296C361.154 21.5931 363.477 21.2593 365.799 21.2593C369.448 21.2593 372.106 22.8021 372.106 27.0964V45.6052H378.608V26.4896C378.608 18.1078 373.828 15.2246 366.33 15.2246Z" fill="black"/>
<path d="M414.999 45.6062L401.795 29.3741L414.734 15.8934H406.64L395.521 28.0899V0H388.949V45.6062H395.521V31.1192L407.166 45.6062H414.999Z" fill="black"/>
<path d="M35.3165 25.9409C24.0764 5.20257 0 5.78583 0 5.78583C7.45146 8.45279 18.3144 27.0273 18.4311 27.2484C29.6802 47.9819 53.7572 47.3895 53.7572 47.3895C46.2916 44.7177 35.4421 26.1619 35.3165 25.9453" fill="black"/>
<path d="M89.3738 24.1569C78.1387 3.41884 54.0898 4.0115 54.0898 4.0115C61.5045 6.67376 72.3861 25.2438 72.4929 25.4649C83.738 46.2029 107.8 45.6055 107.8 45.6055C100.344 42.9337 89.4905 24.378 89.3738 24.1619" fill="black"/>
<path d="M63.7079 24.7249C63.8617 24.9929 76.7169 47.0156 85.5552 50.1859C85.5552 50.1859 56.9965 50.896 43.6715 26.2959C43.5227 26.0422 30.6299 4.00559 21.8242 0.844774C21.8242 0.844774 50.3597 0.148612 63.7079 24.7298" fill="black"/>
</svg>
