<svg width="81" height="78" viewBox="0 0 81 78" fill="none" xmlns="http://www.w3.org/2000/svg">
<path d="M72.634 0V25.6785L53.1411 6.13869C49.1923 2.18041 43.9384 0 38.3583 0H20.9151C9.37833 0 0 9.40092 0 20.9655V78H8.36604V47.5413L31.6738 71.1569C35.631 75.5009 41.2529 77.9916 47.1259 77.9916H60.0849C71.6217 77.9916 81 68.5907 81 57.0261V0H72.634ZM72.634 57.0345C72.634 63.9699 67.0036 69.6138 60.0849 69.6138H47.1259C43.5787 69.6138 40.1905 68.1043 37.8145 65.4626L8.79271 36.0523C8.65885 35.9181 8.51663 35.8091 8.36604 35.7V20.9655C8.36604 14.0301 13.9964 8.38619 20.9151 8.38619H38.3583C41.7131 8.38619 44.8587 9.69444 47.2347 12.0677L72.6423 37.5366V57.0345H72.634Z" fill="black"/>
</svg>
