<svg width="83" height="46" viewBox="0 0 83 46" fill="none" xmlns="http://www.w3.org/2000/svg">
<path d="M0.047362 18.6946C-0.0592024 20.7346 0.047362 22.805 0.047362 24.8145V44.3614H11.0083V26.4586C11.0083 20.8868 10.9626 15.9239 11.0083 14.904C11.2062 10.0781 12.5306 6.91164 14.9968 4.33887H14.4183C9.07489 4.33887 4.06636 7.39879 1.6306 12.1485C0.56496 14.2189 0.16915 16.4568 0.047362 18.7251" fill="black"/>
<path d="M25.1642 0C21.0691 0 17.5829 1.59847 14.9492 4.35392C23.109 4.35392 28.4068 9.91049 28.696 18.7706C28.7569 20.7953 28.7874 31.6801 28.7874 31.6801V44.3765H39.7483V27.2044C39.7483 22.0132 39.794 17.5222 39.4286 14.4319C38.4238 5.78493 33.1261 0.0152244 25.1642 0.0152244" fill="black"/>
<path d="M82.9534 26.7176C83.0599 24.6776 82.9534 22.6072 82.9534 20.5977V1.05078H71.9925V18.9536C71.9925 24.5254 72.0381 29.4883 71.9925 30.5082C71.7946 35.3341 70.4701 38.5006 68.0039 41.0733H68.5824C73.9258 41.0733 78.9344 38.0134 81.3701 33.2637C82.4358 31.1933 82.8316 28.9554 82.9534 26.6871" fill="black"/>
<path d="M57.8207 45.4272C61.9158 45.4272 65.402 43.8288 68.0357 41.0733C59.8759 41.0733 54.5781 35.5168 54.2889 26.6567C54.228 24.632 54.1975 19.5778 54.1975 13.7472V1.05078H43.2518V18.2381C43.2518 23.4293 43.2062 27.9202 43.5715 31.0106C44.5763 39.6575 49.874 45.4272 57.8359 45.4272" fill="black"/>
</svg>
