<svg width="214" height="45" viewBox="0 0 214 45" fill="none" xmlns="http://www.w3.org/2000/svg">
<path d="M193.047 43.5323C188.611 41.8388 186.992 37.5671 187.692 32.989C188.844 25.4386 198.851 24.4433 205.355 25.8004L205.254 23.7912C204.493 19.4827 199.026 19.9343 194.943 20.5287C192.922 20.8236 191.183 19.5748 190.888 17.6694C190.593 15.7639 191.922 13.946 193.927 13.6742L196.526 13.3216C202.143 12.559 209.733 13.0728 212.29 18.5726C213.156 20.4342 213.555 22.4503 213.557 24.5631L213.585 43.2351L208.369 44.1844C205.827 44.6475 203.341 44.7258 200.756 44.7166C198.086 44.7535 195.507 44.477 193.044 43.5369L193.047 43.5323ZM199.636 37.9911C201.376 38.1109 205.346 38.2261 205.346 37.9565C205.346 37.9565 205.35 31.3992 205.35 31.3969C205.35 30.9845 200.673 31.0582 200.221 31.1112C198.703 31.2863 197.014 31.6803 196.325 33.2102C196.074 33.7655 195.994 34.3898 196.051 34.9981C196.102 35.5442 196.268 36.0879 196.583 36.5395C197.104 37.2906 197.987 37.7215 198.881 37.9173C198.982 37.9404 199.256 37.9657 199.639 37.9934L199.636 37.9911Z" fill="black"/>
<path d="M92.93 44.777C90.7965 44.7586 88.6653 44.5443 86.6561 43.9821C83.9373 43.2195 81.4858 41.602 80.4674 38.8671C80.3707 38.6068 80.2877 38.3441 80.2163 38.0745C78.8846 33.0172 80.5251 28.2754 85.5617 26.4621C89.4279 25.0682 93.6028 24.9829 97.5704 25.8032C97.5819 25.0475 97.5865 24.2572 97.4483 23.6051C97.0128 21.5591 95.2963 20.4394 93.2572 20.2712C91.2181 20.103 89.262 20.2067 87.2621 20.5246C85.223 20.8495 83.4397 19.6099 83.1332 17.6975C82.8061 15.6493 84.223 13.9281 86.2598 13.6563L88.6975 13.3314C95.2963 12.4512 103.379 13.2692 105.224 20.4048C105.711 22.2826 105.853 24.1351 105.853 26.1165L105.847 43.2287C103.188 43.7172 100.538 44.2886 97.8423 44.5397C96.2433 44.6895 94.5867 44.7932 92.9277 44.7793L92.93 44.777ZM92.2987 38.093L97.5934 37.9386V31.3951C93.6927 30.7062 87.9971 30.5749 88.3196 34.9134C88.3381 35.8926 88.7574 36.699 89.5085 37.2935C90.3426 37.6644 91.2988 38.1206 92.2987 38.093Z" fill="black"/>
<path d="M131.136 27.4593C131.124 24.3627 130.546 21.0702 127.47 20.6048C125.733 20.3421 123.952 20.508 122.159 20.7683L122.129 40.0832C122.125 42.3941 119.987 44.0922 117.899 44.0899C115.655 44.0876 113.602 42.3181 113.6 39.9173L113.586 14.8861C118.526 13.6557 123.38 12.9507 128.336 13.2618C130.564 13.4023 132.578 13.87 134.484 14.9529C136.442 16.105 137.854 17.8514 138.619 20.0287C139.237 21.7867 139.649 23.6507 139.649 25.593L139.656 40.0924C139.656 42.3734 137.571 44.0392 135.514 44.0899C133.339 44.1406 131.187 42.4195 131.177 40.1085L131.134 27.4593H131.136Z" fill="black"/>
<path d="M73.755 18.2059C73.755 18.2059 73.7757 43.1749 73.7757 43.1772C73.7757 43.5136 68.5525 44.2762 68.0133 44.3569C66.1609 44.6287 64.3084 44.7301 62.449 44.8269C58.6451 45.0273 53.9909 44.5297 51.15 41.7395C48.3091 38.9493 47.6778 35.0577 47.6916 31.392L47.7423 17.7382C47.7515 15.4941 50.0187 13.9296 52.0486 13.9849C54.0784 14.0402 56.1774 15.6507 56.1843 17.9248C56.1913 20.1045 56.1982 22.2841 56.2051 24.4637C56.212 26.4176 56.1129 28.3737 56.2028 30.3275C56.2811 32.0371 56.3433 34.2329 57.2903 35.719C58.9584 38.3341 62.6011 37.6014 65.1817 37.295L65.2093 18.0999C65.2116 15.7014 67.3037 13.9619 69.5087 13.9826C71.7136 14.0033 73.7573 15.7245 73.7596 18.2059H73.755Z" fill="black"/>
<path d="M156.337 35.2681C157.173 37.5583 159.966 37.8486 162.374 37.4108C164.21 37.0767 165.95 38.0099 166.502 39.625C167.108 41.3922 166.355 43.346 164.59 44.035C162.887 44.7008 161.1 44.7193 159.289 44.7446C157.296 44.7746 155.441 44.6018 153.588 43.929C147.874 41.8553 147.063 36.2749 147.142 30.5701V6.69556L155.729 4.63574L155.74 13.8819L166.051 13.8681V20.9899L155.733 20.9945L155.747 32.4963C155.747 33.4294 156.038 34.4409 156.339 35.2681H156.337Z" fill="black"/>
<path d="M181.529 39.6642C181.587 42.2516 179.525 44.1271 177.172 44.0834C174.82 44.0396 172.889 42.065 172.963 39.5605V13.875L181.527 13.8819V39.6642H181.529Z" fill="black"/>
<path d="M177.227 10.2668C180.062 10.2668 182.361 7.96853 182.361 5.13342C182.361 2.29831 180.062 0 177.227 0C174.392 0 172.094 2.29831 172.094 5.13342C172.094 7.96853 174.392 10.2668 177.227 10.2668Z" fill="black"/>
<path d="M42.3683 36.5626C42.3361 36.5626 42.3061 36.5672 42.2762 36.5672L36.387 36.4335C40.4076 30.4637 40.6357 20.895 37.8086 14.4921C35.758 9.85173 32.1015 6.3611 27.2999 4.7114C22.5167 3.06631 17.4547 3.02484 12.6623 4.66532C7.9597 6.27585 4.31009 9.62133 2.16041 14.0981C-0.569888 19.7891 -0.692002 27.6782 1.67886 33.4498C3.19953 37.1524 5.66256 40.2652 9.15319 42.2651C12.1554 43.9839 15.4594 44.9769 18.9823 44.9769L42.0642 44.9839C42.1656 44.9908 42.267 45 42.3706 45C44.7 45 46.5894 43.1107 46.5894 40.7813C46.5894 38.4519 44.7 36.5626 42.3706 36.5626H42.3683ZM29.3919 30.4983C27.8298 34.7954 24.0857 37.2515 19.6573 37.1847C15.1967 37.1201 11.6761 34.4843 10.2223 30.2564C8.75229 25.9732 8.89284 20.1577 11.1761 16.181C13.024 12.9622 16.3303 11.2779 20.0006 11.3263C23.5235 11.3747 26.664 12.9484 28.4473 16.045C30.8251 20.1739 31.037 25.9685 29.3919 30.4983Z" fill="black"/>
</svg>
