<svg width="266" height="201" viewBox="0 0 266 201" fill="none" xmlns="http://www.w3.org/2000/svg">
<path d="M28.974 200.501V167.547H0L0.5 41H227.5L227 167.547H74.7393L28.974 200.501Z" fill="#E7D5FF"/>
<path d="M183.252 173.5V146.843H207V0.5H20V146.843H41.5484H145.762L183.252 173.5Z" fill="white" stroke="#4B256E" stroke-miterlimit="10"/>
<path d="M36.1562 25.5H190.098" stroke="#4B256E" stroke-miterlimit="10"/>
<path d="M36.1562 41.4882H190.098" stroke="#4B256E" stroke-miterlimit="10"/>
<path d="M36.1562 56.4885H190.098" stroke="#4B256E" stroke-miterlimit="10"/>
<path d="M36 71.4882H189.851" stroke="#4B256E" stroke-miterlimit="10"/>
<path d="M36 86.4885H189.851" stroke="#4B256E" stroke-miterlimit="10"/>
<path d="M36.6328 101.488H189.633" stroke="#4B256E" stroke-miterlimit="10"/>
<path d="M36.6328 116.488H189.633" stroke="#4B256E" stroke-miterlimit="10"/>
<path d="M259.161 61.8903L263.248 77.6027C265.519 75.3427 266.567 71.8989 265.694 68.5268C264.82 65.1547 262.235 62.6795 259.161 61.8903ZM230.236 97.9787L224.541 97.3689L216.507 99.593L221.223 117.673C221.921 120.399 224.681 122.05 227.371 121.332L233.205 119.718C236.174 118.893 237.781 115.557 236.524 112.651L230.271 98.0146L230.236 97.9787ZM195.756 77.4592L193.974 77.9615C191.843 78.5354 190.551 80.8313 191.145 83.0196L194.079 94.2479C194.638 96.4362 196.874 97.7635 199.005 97.1536L200.786 96.6514C200.612 96.2927 200.507 95.9339 200.402 95.5752L195.965 78.5713C195.861 78.2126 195.791 77.818 195.791 77.4592H195.756ZM215.913 67.3071L202.184 71.0738C199.284 71.863 197.537 74.9481 198.341 77.9256L202.778 94.9654C203.546 97.9428 206.55 99.7006 209.45 98.9114L223.179 95.1447L215.913 67.3071ZM225.659 94.9654L254.829 98.1222L241.869 48.4737L218.148 66.195L225.659 94.9654ZM246.969 41.6578C244.733 42.2676 243.371 44.6353 244 46.967L257.414 98.3733C258.008 100.669 260.314 102.068 262.584 101.423C264.855 100.777 266.183 98.4451 265.554 96.1133L252.139 44.707C251.545 42.4111 249.24 41.0121 246.969 41.6578Z" fill="#4B256E"/>
</svg>
