<svg width="227" height="201" viewBox="0 0 227 201" fill="none" xmlns="http://www.w3.org/2000/svg">
<path d="M28.8632 200.5V167.546H0V35.5938H210.906V167.546H74.4534L28.8632 200.5Z" fill="#E7D5FF"/>
<path d="M169.145 161.27V136.498H190.826V0.5H20.1016V136.498H39.7745H134.918L169.145 161.27Z" fill="white" stroke="#4B256E" stroke-miterlimit="10"/>
<path d="M35.1914 27.0879H175.735" stroke="#4B256E" stroke-miterlimit="10"/>
<path d="M35.1914 43.2734H175.735" stroke="#4B256E" stroke-miterlimit="10"/>
<path d="M35.1914 59.4023H175.735" stroke="#4B256E" stroke-miterlimit="10"/>
<path d="M35.1914 76.7949H157.917" stroke="#4B256E" stroke-miterlimit="10"/>
<path d="M35.1914 90.4316H157.917" stroke="#4B256E" stroke-miterlimit="10"/>
<path d="M35.2266 107.318H80.6804" stroke="#4B256E" stroke-miterlimit="10"/>
<path d="M89.7695 107.318H176.132" stroke="#4B256E" stroke-miterlimit="10"/>
<rect x="189.766" y="77.7715" width="4.54538" height="18.1815" fill="white"/>
<path d="M220.329 63.3309L223.797 76.722C225.723 74.7959 226.612 71.8609 225.871 68.987C225.13 66.1131 222.937 64.0035 220.329 63.3309ZM195.786 94.0876L190.955 93.5679L184.138 95.4634L188.139 110.872C188.732 113.196 191.074 114.602 193.356 113.991L198.306 112.615C200.825 111.912 202.189 109.069 201.122 106.592L195.816 94.1182L195.786 94.0876ZM166.531 76.5997L165.02 77.0277C163.212 77.5169 162.115 79.4736 162.619 81.3386L165.109 90.908C165.583 92.773 167.48 93.9042 169.288 93.3844L170.8 92.9564C170.651 92.6507 170.562 92.3449 170.473 92.0392L166.709 77.5475C166.62 77.2418 166.561 76.9054 166.561 76.5997H166.531ZM183.634 67.9475L171.985 71.1577C169.525 71.8303 168.043 74.4596 168.725 76.9972L172.489 91.5195C173.141 94.057 175.69 95.5551 178.15 94.8825L189.799 91.6723L183.634 67.9475ZM191.904 91.5195L216.653 94.2099L205.657 51.8965L185.531 66.9997L191.904 91.5195ZM209.984 46.0876C208.087 46.6073 206.931 48.6252 207.465 50.6124L218.847 94.4239C219.351 96.3806 221.307 97.573 223.233 97.0227C225.16 96.4723 226.286 94.4851 225.753 92.4978L214.371 48.6863C213.867 46.7296 211.911 45.5373 209.984 46.0876Z" fill="#4B256E"/>
</svg>
