<svg width="204" height="179" viewBox="0 0 204 179" fill="none" xmlns="http://www.w3.org/2000/svg">
<path d="M133.875 119C142.09 119 148.75 125.66 148.75 133.875V150.892L148.683 151.814C146.042 169.886 129.808 178.577 102.568 178.577C75.4257 178.577 58.9331 169.986 55.3729 152.121L55.25 150.875V133.875C55.25 125.66 61.9098 119 70.125 119H133.875ZM138.073 67.9992L189.125 68C197.34 68 204 74.6597 204 82.875V99.8918L203.933 100.814C201.292 118.886 185.058 127.577 157.818 127.577L156.388 127.563C153.765 118.188 145.444 111.194 135.395 110.549L133.875 110.5L126.036 110.506C134.706 103.494 140.25 92.7694 140.25 80.75C140.25 76.2791 139.483 71.9874 138.073 67.9992ZM14.875 68L65.9268 67.9992C64.5171 71.9874 63.75 76.2791 63.75 80.75C63.75 92.0624 68.6608 102.228 76.4669 109.231L77.964 110.506L70.125 110.5C59.3963 110.5 50.3557 117.728 47.6074 127.58L47.3177 127.577C20.1757 127.577 3.68306 118.986 0.122933 101.121L0 99.875V82.875C0 74.6597 6.65976 68 14.875 68ZM102 51C118.43 51 131.75 64.3195 131.75 80.75C131.75 97.1804 118.43 110.5 102 110.5C85.5695 110.5 72.25 97.1804 72.25 80.75C72.25 64.3195 85.5695 51 102 51ZM157.25 0C173.68 0 187 13.3195 187 29.75C187 46.1805 173.68 59.5 157.25 59.5C140.82 59.5 127.5 46.1805 127.5 29.75C127.5 13.3195 140.82 0 157.25 0ZM46.75 0C63.1805 0 76.5 13.3195 76.5 29.75C76.5 46.1805 63.1805 59.5 46.75 59.5C30.3195 59.5 17 46.1805 17 29.75C17 13.3195 30.3195 0 46.75 0Z" fill="#9747FF"/>
</svg>
