<svg width="257" height="201" viewBox="0 0 257 201" fill="none" xmlns="http://www.w3.org/2000/svg">
<path d="M227 0H0V167H227V0Z" fill="#4B256E"/>
<path d="M96 0V10.8931H130.923V0" stroke="#9747FF" stroke-miterlimit="10"/>
<path d="M169 40H58V200H169V40Z" fill="white" stroke="#9747FF" stroke-miterlimit="10"/>
<path d="M169 40H58V60H169V40Z" fill="white" stroke="#9747FF" stroke-miterlimit="10"/>
<path d="M206.998 175H134.023V193.21H206.998V175Z" fill="white" stroke="#9747FF" stroke-miterlimit="10"/>
<path d="M207 69H134V147H207V69Z" fill="white" stroke="#9747FF" stroke-miterlimit="10"/>
<path d="M115.779 88H20V147.182H115.779V88Z" fill="white" stroke="#9747FF" stroke-miterlimit="10"/>
<path d="M89.2893 192.51C99.3902 192.51 107.579 184.337 107.579 174.255C107.579 164.173 99.3902 156 89.2893 156C79.1884 156 71 164.173 71 174.255C71 184.337 79.1884 192.51 89.2893 192.51Z" fill="white" stroke="#9747FF" stroke-miterlimit="10"/>
<path d="M102.097 102.653H33.6836" stroke="#9747FF" stroke-miterlimit="10" stroke-linecap="square"/>
<path d="M102.097 116.311H33.6836" stroke="#9747FF" stroke-miterlimit="10" stroke-linecap="square"/>
<path d="M102.097 129.969H33.6836" stroke="#9747FF" stroke-miterlimit="10" stroke-linecap="square"/>
<path d="M104 48.9968H122.152" stroke="#9747FF" stroke-miterlimit="10"/>
<path d="M211.338 79.9205H244.721C250.98 79.9205 256.098 84.9894 256.098 91.2764V114.342C256.098 117.485 253.539 120 250.429 120H205.669C202.519 120 200 117.446 200 114.342V91.2764C200 85.0287 205.078 79.9205 211.377 79.9205H211.338Z" fill="#C2FE2D"/>
<path d="M228.015 77.2503C238.321 77.2503 246.675 68.9116 246.675 58.6252C246.675 48.3388 238.321 40 228.015 40C217.71 40 209.355 48.3388 209.355 58.6252C209.355 68.9116 217.71 77.2503 228.015 77.2503Z" fill="#C2FE2D"/>
</svg>
