<svg width="179" height="179" viewBox="0 0 179 179" fill="none" xmlns="http://www.w3.org/2000/svg">
<g clip-path="url(#clip0_341_637)">
<path d="M31.9391 0.581158C34.2669 1.69996 35.7474 4.05404 35.7474 6.63681C35.7474 14.0708 38.5434 18.3509 42.0463 23.5633L42.301 23.942C45.28 28.3678 49.1849 34.1693 49.1849 42.4701C49.1849 50.9403 44.9102 58.4122 38.4004 62.846C40.1131 64.2818 41.6305 66.0527 42.9342 68.1628C47.1962 75.0605 49.1849 85.6 49.1849 100.743C49.1849 116.081 47.1247 134.499 43.7688 149.203C42.1001 156.515 40.0333 163.26 37.5634 168.329C36.3385 170.843 34.8469 173.298 32.9898 175.219C31.153 177.117 28.3151 179.129 24.5495 179.129C20.7838 179.129 17.9459 177.117 16.1092 175.219C14.2521 173.298 12.7605 170.843 11.5355 168.329C9.06563 163.26 6.99885 156.515 5.33018 149.203C1.97421 134.499 -0.0859375 116.081 -0.0859375 100.743C-0.0859375 85.6 1.90272 75.0605 6.16474 68.1628C7.46845 66.0527 8.9859 64.2818 10.6986 62.846C4.1888 58.4122 -0.0859375 50.9403 -0.0859375 42.4701C-0.0859375 39.1717 -0.0828918 33.5018 3.34878 26.1809C6.70708 19.0164 13.0887 10.7845 24.8315 1.39037C26.8483 -0.22312 29.6113 -0.537648 31.9391 0.581158Z" fill="#9747FF"/>
<path d="M71.5812 115.631C66.7587 114.823 62.154 113.371 57.8581 111.369C58.046 107.729 58.1437 104.165 58.1437 100.742C58.1437 97.1065 58.0361 93.6298 57.7994 90.3197C61.7692 93.5832 66.453 96.0091 71.5812 97.3296V76.0625C71.5812 68.6411 77.5972 62.625 85.0183 62.625H116.372C116.372 42.8348 100.33 26.7917 80.5391 26.7917C71.7125 26.7917 63.6313 29.9832 57.3863 35.2751C55.8305 27.9864 52.2278 22.6406 49.9272 19.2267L49.5664 18.6908C58.3212 12.5075 69.0062 8.875 80.5391 8.875C110.224 8.875 134.289 32.9397 134.289 62.625H165.643C173.065 62.625 179.081 68.6411 179.081 76.0625V156.687C179.081 164.109 173.065 170.125 165.643 170.125H85.0183C77.5972 170.125 71.5812 164.109 71.5812 156.687V115.631ZM89.4975 115.631V152.208H161.164V80.5417H131.231C124.815 98.6957 108.923 112.373 89.4975 115.631ZM111.579 80.5417H89.4975V97.3296C98.9118 94.9063 106.828 88.7547 111.579 80.5417Z" fill="#9747FF"/>
</g>
<defs>
<clipPath id="clip0_341_637">
<rect width="179" height="179" fill="white"/>
</clipPath>
</defs>
</svg>
