<svg width="227" height="201" viewBox="0 0 227 201" fill="none" xmlns="http://www.w3.org/2000/svg">
<path d="M226.577 0H0V148.147H226.577V0Z" fill="#4B256E"/>
<path d="M91.5039 0V10.8931H126.362V0" stroke="white" stroke-miterlimit="10"/>
<path d="M163.317 45.3184H56.6953V200.001H163.317V45.3184Z" fill="white" stroke="#4B256E" stroke-miterlimit="10"/>
<path d="M163.317 45.3184H56.6953V65.5796H163.317V45.3184Z" fill="white" stroke="#4B256E" stroke-miterlimit="10"/>
<path d="M191.72 169.934H122.004V187.363H191.72V169.934Z" fill="white" stroke="#4B256E" stroke-miterlimit="10"/>
<path d="M191.72 78.4297H122.004V156.86H191.72V78.4297Z" fill="white" stroke="#4B256E" stroke-miterlimit="10"/>
<path d="M104.573 78.4297H13.0703V135.074H104.573V78.4297Z" fill="white" stroke="#4B256E" stroke-miterlimit="10"/>
<path d="M88.0546 187.101C97.7045 187.101 105.527 179.279 105.527 169.629C105.527 159.979 97.7045 152.156 88.0546 152.156C78.4048 152.156 70.582 159.979 70.582 169.629C70.582 179.279 78.4048 187.101 88.0546 187.101Z" fill="white" stroke="#4B256E" stroke-miterlimit="10"/>
<path d="M91.5033 92.4551H26.1445" stroke="#4B256E" stroke-miterlimit="10" stroke-linecap="square"/>
<path d="M91.5033 105.527H26.1445" stroke="#4B256E" stroke-miterlimit="10" stroke-linecap="square"/>
<path d="M91.5033 118.6H26.1445" stroke="#4B256E" stroke-miterlimit="10" stroke-linecap="square"/>
<path d="M101.355 55.4707H118.697" stroke="#4B256E" stroke-miterlimit="10"/>
<path d="M178.698 70.1328H204.503C209.342 70.1328 213.298 74.0584 213.298 78.9274V96.7903C213.298 99.2248 211.32 101.172 208.916 101.172H174.316C171.881 101.172 169.934 99.1944 169.934 96.7903V78.9274C169.934 74.0888 173.859 70.1328 178.728 70.1328H178.698Z" fill="#C2FE2D"/>
<path d="M191.592 68.0653C199.559 68.0653 206.017 61.6074 206.017 53.6411C206.017 45.6748 199.559 39.2168 191.592 39.2168C183.626 39.2168 177.168 45.6748 177.168 53.6411C177.168 61.6074 183.626 68.0653 191.592 68.0653Z" fill="#C2FE2D"/>
</svg>
