<svg width="227" height="201" viewBox="0 0 227 201" fill="none" xmlns="http://www.w3.org/2000/svg">
<path d="M227 0H0V148.147H227V0Z" fill="#4B256E"/>
<path d="M91.6758 0V10.8931H126.599V0" stroke="white" stroke-miterlimit="10"/>
<path d="M163.622 45.3184H56.8008V200.001H163.622V45.3184Z" fill="white" stroke="#4B256E" stroke-miterlimit="10"/>
<path d="M163.622 45.3184H56.8008V65.5796H163.622V45.3184Z" fill="white" stroke="#4B256E" stroke-miterlimit="10"/>
<path d="M192.077 169.934H122.23V187.363H192.077V169.934Z" fill="white" stroke="#4B256E" stroke-miterlimit="10"/>
<path d="M192.077 78.4297H122.23V156.86H192.077V78.4297Z" fill="white" stroke="#4B256E" stroke-miterlimit="10"/>
<path d="M104.767 78.4297H13.0938V135.074H104.767V78.4297Z" fill="white" stroke="#4B256E" stroke-miterlimit="10"/>
<path d="M88.22 187.101C97.8879 187.101 105.725 179.279 105.725 169.629C105.725 159.979 97.8879 152.156 88.22 152.156C78.5522 152.156 70.7148 159.979 70.7148 169.629C70.7148 179.279 78.5522 187.101 88.22 187.101Z" fill="white" stroke="#4B256E" stroke-miterlimit="10"/>
<path d="M91.6722 92.4551H26.1914" stroke="#4B256E" stroke-miterlimit="10" stroke-linecap="square"/>
<path d="M91.6722 105.527H26.1914" stroke="#4B256E" stroke-miterlimit="10" stroke-linecap="square"/>
<path d="M91.6722 118.6H26.1914" stroke="#4B256E" stroke-miterlimit="10" stroke-linecap="square"/>
<path d="M101.543 55.4707H118.917" stroke="#4B256E" stroke-miterlimit="10"/>
<path d="M179.03 70.1313H204.884C209.732 70.1313 213.695 74.0569 213.695 78.9259V96.7889C213.695 99.2233 211.713 101.171 209.305 101.171H174.64C172.201 101.171 170.25 99.1929 170.25 96.7889V78.9259C170.25 74.0874 174.183 70.1313 179.061 70.1313H179.03Z" fill="#C2FE2D"/>
<path d="M191.947 68.0634C199.928 68.0634 206.398 61.6054 206.398 53.6391C206.398 45.6728 199.928 39.2148 191.947 39.2148C183.966 39.2148 177.496 45.6728 177.496 53.6391C177.496 61.6054 183.966 68.0634 191.947 68.0634Z" fill="#C2FE2D"/>
</svg>
