<svg width="289" height="201" viewBox="0 0 289 201" fill="none" xmlns="http://www.w3.org/2000/svg">
<path d="M247 40.5H20V180.5H247V40.5Z" fill="#4B256E"/>
<path d="M267 180.5H0V200.5H267V180.5Z" fill="#4B256E"/>
<path d="M227 20.5H40V147.5H227V20.5Z" fill="white" stroke="#4B256E" stroke-miterlimit="10"/>
<path d="M227 0.5H40V20.5H227V0.5Z" fill="white" stroke="#4B256E" stroke-miterlimit="10"/>
<path d="M60.5849 13.7912C62.1354 13.7912 63.3924 12.5126 63.3924 10.9353C63.3924 9.358 62.1354 8.07935 60.5849 8.07935C59.0343 8.07935 57.7773 9.358 57.7773 10.9353C57.7773 12.5126 59.0343 13.7912 60.5849 13.7912Z" fill="#4B256E"/>
<path d="M74.3896 13.7912C75.9401 13.7912 77.1971 12.5126 77.1971 10.9353C77.1971 9.358 75.9401 8.07935 74.3896 8.07935C72.839 8.07935 71.582 9.358 71.582 10.9353C71.582 12.5126 72.839 13.7912 74.3896 13.7912Z" fill="#4B256E"/>
<path d="M88.2294 13.7912C89.78 13.7912 91.037 12.5126 91.037 10.9353C91.037 9.358 89.78 8.07935 88.2294 8.07935C86.6789 8.07935 85.4219 9.358 85.4219 10.9353C85.4219 12.5126 86.6789 13.7912 88.2294 13.7912Z" fill="#4B256E"/>
<path d="M208.843 13.7912C210.393 13.7912 211.65 12.5126 211.65 10.9353C211.65 9.358 210.393 8.07935 208.843 8.07935C207.292 8.07935 206.035 9.358 206.035 10.9353C206.035 12.5126 207.292 13.7912 208.843 13.7912Z" fill="#4B256E"/>
<path d="M115 40.5H56V76.5H115V40.5Z" stroke="#4B256E" stroke-miterlimit="10"/>
<path d="M134 40.5H211.885" stroke="#4B256E" stroke-miterlimit="10"/>
<path d="M134 58.5H211.885" stroke="#4B256E" stroke-miterlimit="10"/>
<path d="M134 76.5H211.885" stroke="#4B256E" stroke-miterlimit="10"/>
<path d="M56 94.5H211.77" stroke="#4B256E" stroke-miterlimit="10"/>
<path d="M56 112.5H211.77" stroke="#4B256E" stroke-miterlimit="10"/>
<path d="M56 130.5H211.77" stroke="#4B256E" stroke-miterlimit="10"/>
<circle cx="250.104" cy="109.609" r="21.0537" fill="white"/>
<path d="M288.068 103.359C288.068 101.586 286.807 100.018 285 99.7454L279.274 98.791C278.933 97.5298 278.49 96.3027 278.013 95.1097C277.501 93.9167 276.956 92.7237 276.308 91.5989L279.581 87.0313C280.74 85.5997 280.637 83.4864 279.308 82.157L273.411 76.2601C272.184 74.9989 270.173 74.7944 268.673 75.8852L263.969 79.2597C262.844 78.6121 261.686 78.0667 260.458 77.5554C259.265 77.0441 258.038 76.6351 256.777 76.2942L255.891 70.8404C255.72 68.9657 254.153 67.5 252.244 67.5H243.893C242.12 67.5 240.586 68.7953 240.28 70.5677L239.325 76.2942C238.132 76.6351 236.973 77.01 235.848 77.4872L235.644 77.5554C234.451 78.0667 233.258 78.6121 232.133 79.2597L227.395 75.8852C225.963 74.8626 223.952 74.9989 222.657 76.2601L216.931 81.9866C215.533 83.2137 215.26 85.327 216.385 86.8609L219.76 91.5989C219.112 92.7237 218.567 93.8826 218.055 95.0756C217.578 96.2686 217.135 97.4957 216.794 98.7569L211.34 99.6432C209.466 99.8136 208 101.382 208 103.29V111.641C208 113.414 209.295 114.982 211.068 115.255L216.794 116.209C217.135 117.402 217.51 118.561 217.987 119.686L218.055 119.89C218.567 121.083 219.112 122.242 219.76 123.367L216.453 127.969C215.329 129.4 215.431 131.514 216.76 132.843L222.657 138.74C223.918 139.967 225.895 140.171 227.395 139.115L232.099 135.74C233.224 136.388 234.383 136.933 235.61 137.445C236.803 137.922 238.03 138.365 239.257 138.706L240.143 144.16C240.314 146.034 241.882 147.5 243.79 147.5H252.141C253.914 147.5 255.448 146.205 255.755 144.398L256.709 138.672C257.97 138.331 259.197 137.888 260.39 137.411C261.583 136.899 262.776 136.354 263.901 135.706L268.366 138.91C269.798 140.171 271.98 140.103 273.377 138.74L279.274 132.843C280.535 131.582 280.74 129.605 279.649 128.105L276.24 123.367C276.888 122.242 277.433 121.083 277.945 119.856C278.422 118.663 278.865 117.436 279.206 116.175L284.66 115.289C286.534 115.118 288 113.55 288 111.641V103.29L288.068 103.359ZM261.174 120.674C257.8 124.015 253.164 126.128 248.051 126.128C242.938 126.128 238.303 124.049 234.928 120.674C231.553 117.3 229.474 112.664 229.474 107.551C229.474 102.438 231.553 97.8025 234.928 94.428C238.303 91.0535 242.938 88.9742 248.051 88.9742C253.164 88.9742 257.8 91.0535 261.174 94.428C264.549 97.8025 266.628 102.438 266.628 107.551C266.628 112.664 264.549 117.334 261.174 120.674Z" fill="#9747FF"/>
<path d="M248.062 96.3057C244.96 96.3057 242.131 97.5669 240.12 99.578C238.109 101.589 236.848 104.418 236.848 107.52C236.848 110.622 238.109 113.451 240.12 115.462C242.131 117.473 244.96 118.734 248.062 118.734C251.164 118.734 253.959 117.473 256.004 115.462C258.049 113.417 259.276 110.622 259.276 107.52C259.276 104.418 258.015 101.589 256.004 99.578C253.993 97.5669 251.164 96.3057 248.062 96.3057Z" fill="#9747FF"/>
<path d="M21 180.5H248" stroke="#E7D5FF"/>
</svg>
