<svg width="287" height="201" viewBox="0 0 287 201" fill="none" xmlns="http://www.w3.org/2000/svg">
<path d="M257.729 23.4375H30.6562V177.802H257.729V23.4375Z" fill="#4B256E"/>
<path d="M286.112 177.793H0V200.5H286.112V177.793Z" fill="#4B256E"/>
<path d="M230.525 18.2578H55.543V142.467H230.525V18.2578Z" fill="white" stroke="#4B256E" stroke-miterlimit="10"/>
<path d="M230.525 0.5H55.543V18.2571H230.525V0.5Z" fill="white" stroke="#4B256E" stroke-miterlimit="10"/>
<path d="M74.3919 12.0308C75.8466 12.0308 77.0259 10.8312 77.0259 9.35133C77.0259 7.87151 75.8466 6.67188 74.3919 6.67188C72.9371 6.67188 71.7578 7.87151 71.7578 9.35133C71.7578 10.8312 72.9371 12.0308 74.3919 12.0308Z" fill="#4B256E"/>
<path d="M87.3411 12.0308C88.7958 12.0308 89.9751 10.8312 89.9751 9.35133C89.9751 7.87151 88.7958 6.67188 87.3411 6.67188C85.8863 6.67188 84.707 7.87151 84.707 9.35133C84.707 10.8312 85.8863 12.0308 87.3411 12.0308Z" fill="#4B256E"/>
<path d="M100.329 12.0308C101.784 12.0308 102.963 10.8312 102.963 9.35133C102.963 7.87151 101.784 6.67188 100.329 6.67188C98.8746 6.67188 97.6953 7.87151 97.6953 9.35133C97.6953 10.8312 98.8746 12.0308 100.329 12.0308Z" fill="#4B256E"/>
<path d="M213.49 12.0308C214.944 12.0308 216.124 10.8312 216.124 9.35133C216.124 7.87151 214.944 6.67188 213.49 6.67188C212.035 6.67188 210.855 7.87151 210.855 9.35133C210.855 10.8312 212.035 12.0308 213.49 12.0308Z" fill="#4B256E"/>
<path d="M125.483 34.3301H71.7578V71.1613H125.483V34.3301Z" stroke="#4B256E" stroke-miterlimit="10"/>
<path d="M143.055 34.3301H216.127" stroke="#4B256E" stroke-miterlimit="10"/>
<path d="M143.055 52.7266H216.127" stroke="#4B256E" stroke-miterlimit="10"/>
<path d="M143.055 71.1133H216.127" stroke="#4B256E" stroke-miterlimit="10"/>
<path d="M69.9844 89.5547H216.128" stroke="#4B256E" stroke-miterlimit="10"/>
<path d="M69.9844 107.951H216.128" stroke="#4B256E" stroke-miterlimit="10"/>
<path d="M69.9844 126.383H216.128" stroke="#4B256E" stroke-miterlimit="10"/>
<path d="M30.6562 175.346H257.729" stroke="#E7D5FF"/>
<circle cx="235.017" cy="70.8924" r="18.1658" fill="white"/>
<path d="M267.773 65.4985C267.773 63.9691 266.685 62.6163 265.126 62.381L260.185 61.5575C259.891 60.4693 259.509 59.4105 259.097 58.3811C258.656 57.3518 258.185 56.3224 257.626 55.3519L260.45 51.4108C261.45 50.1756 261.361 48.3521 260.214 47.2051L255.126 42.1171C254.068 41.0289 252.332 40.8525 251.038 41.7936L246.98 44.7052C246.009 44.1464 245.009 43.6759 243.95 43.2347C242.921 42.7935 241.862 42.4406 240.774 42.1465L240.009 37.4408C239.862 35.8232 238.509 34.5586 236.862 34.5586H229.657C228.127 34.5586 226.804 35.6762 226.539 37.2055L225.716 42.1465C224.686 42.4406 223.686 42.7641 222.716 43.1759L222.539 43.2347C221.51 43.6759 220.481 44.1464 219.51 44.7052L215.422 41.7936C214.187 40.9113 212.452 41.0289 211.334 42.1171L206.393 47.0581C205.187 48.1169 204.952 49.9403 205.922 51.2638L208.834 55.3519C208.275 56.3224 207.805 57.3224 207.364 58.3517C206.952 59.3811 206.57 60.4399 206.275 61.5281L201.57 62.2927C199.952 62.4398 198.688 63.7927 198.688 65.4397V72.6453C198.688 74.1746 199.805 75.5275 201.334 75.7628L206.275 76.5863C206.57 77.6156 206.893 78.6156 207.305 79.5862L207.364 79.7626C207.805 80.792 208.275 81.7919 208.834 82.7625L205.981 86.7329C205.011 87.9682 205.099 89.7916 206.246 90.9386L211.334 96.0267C212.422 97.0854 214.128 97.2619 215.422 96.3502L219.481 93.4385C220.451 93.9973 221.451 94.4679 222.51 94.909C223.539 95.3208 224.598 95.7031 225.657 95.9972L226.422 100.703C226.569 102.321 227.922 103.585 229.569 103.585H236.774C238.304 103.585 239.627 102.468 239.892 100.909L240.715 95.9678C241.803 95.6737 242.862 95.2914 243.892 94.8796C244.921 94.4385 245.95 93.9679 246.921 93.4091L250.774 96.1737C252.009 97.2619 253.891 97.2031 255.097 96.0267L260.185 90.9386C261.273 89.8504 261.45 88.1446 260.508 86.8506L257.567 82.7625C258.126 81.7919 258.597 80.792 259.038 79.7332C259.45 78.7038 259.832 77.6451 260.126 76.5569L264.832 75.7922C266.449 75.6451 267.714 74.2923 267.714 72.6453V65.4397L267.773 65.4985ZM244.568 80.4391C241.656 83.3213 237.656 85.1447 233.245 85.1447C228.833 85.1447 224.833 83.3507 221.922 80.4391C219.01 77.5274 217.216 73.5276 217.216 69.116C217.216 64.7044 219.01 60.7046 221.922 57.7929C224.833 54.8813 228.833 53.0872 233.245 53.0872C237.656 53.0872 241.656 54.8813 244.568 57.7929C247.48 60.7046 249.274 64.7044 249.274 69.116C249.274 73.5276 247.48 77.5568 244.568 80.4391Z" fill="#9747FF"/>
<path d="M233.254 59.4141C230.578 59.4141 228.137 60.5023 226.402 62.2375C224.666 63.9727 223.578 66.4138 223.578 69.0901C223.578 71.7665 224.666 74.2076 226.402 75.9428C228.137 77.678 230.578 78.7662 233.254 78.7662C235.931 78.7662 238.342 77.678 240.107 75.9428C241.871 74.1782 242.93 71.7665 242.93 69.0901C242.93 66.4138 241.842 63.9727 240.107 62.2375C238.372 60.5023 235.931 59.4141 233.254 59.4141Z" fill="#9747FF"/>
</svg>
