<svg width="165" height="68" viewBox="0 0 165 68" fill="none" xmlns="http://www.w3.org/2000/svg">
<g clip-path="url(#clip0_394_1372)">
<path d="M144.497 19.7864C144.588 19.4837 145.23 18.292 145.23 16.9265C145.23 15.561 144.706 14.3371 145.08 13.1777C145.787 10.9619 148.688 11.5931 149.461 11.9667C151.943 13.1584 151.465 16.8299 151.242 17.7896C150.352 21.6415 148.079 23.5481 145.604 22.627C144.215 22.1053 144.294 20.4756 144.497 19.7993V19.7864ZM115.124 59.6578C116.198 59.1103 117.069 59.6771 120.239 59.7995C123.409 59.9218 125.629 59.0458 126.742 58.1505C130.92 54.8075 130.757 48.3147 131.143 44.7398C131.143 44.7398 125.164 52.3212 120.619 49.8026C113.244 45.7189 117.023 25.1198 121.162 21.7059C124.312 18.5626 127.895 19.664 128.288 21.7446C128.975 25.4225 125.799 25.9893 124.43 35.7929C124.234 37.1842 123.946 41.3131 125.537 41.3131C127.259 41.3131 128.897 38.859 130.18 36.1601C131.759 32.8364 132.8 29.1262 132.8 29.1262C135.374 19.7993 138.694 19.4643 140.685 19.9861C143.017 20.598 142.899 23.1037 142.63 25.2422C142.48 26.4595 140.646 32.9137 139.415 40.1665C138.648 44.7269 138.596 49.1456 137.843 53.2552C136.684 59.5418 133.344 65.2037 125.308 67.0588C120.835 68.0894 113.997 67.8897 113.755 62.2536C113.703 60.9589 114.338 60.0442 115.117 59.6449L115.124 59.6578ZM155.781 34.363C155.054 33.9829 152.428 32.5143 152.48 31.6898C152.605 29.7253 156.39 28.0763 157.634 28.5079C158.401 28.8106 157.634 30.7881 159.173 31.838C160.712 32.8879 163.836 32.5723 164.714 29.1584C166.161 23.5417 162.939 18.685 154.569 21.2808C148.642 23.1165 142.735 29.648 143.737 34.2084C144.51 37.7124 148.518 39.1553 151.373 40.553C153.22 41.4548 154.432 42.1054 154.131 42.9041C153.928 43.4451 152.716 43.8316 150.627 43.7092C148.059 43.5611 146.651 41.0812 144.333 41.9958C142.178 42.8461 141.694 44.1794 141.595 45.2294C141.379 47.4838 142.349 51.136 148.02 51.7286C154.438 52.4049 159.232 49.4419 161.001 47.6255C163.915 44.6432 163.823 41.0683 162.671 39.3227C160.653 36.276 156.501 34.7366 155.768 34.3565L155.781 34.363ZM114.77 20.0441C116.401 8.51422 121.431 1.24205 116.814 0.398245C114.79 0.0310937 112.432 1.29358 111.358 3.42563C109.243 7.61889 107.56 19.4321 107.56 19.4321C102.471 20.1858 88.5344 27.4837 87.4931 43.0071C82.5027 38.6657 89.7002 26.5111 84.9193 23.3291C81.5399 21.0811 75.279 25.912 72.7052 29.9894C74.5389 25.6222 76.15 22.8267 73.6744 21.4998C72.1616 20.6946 67.7016 21.3194 65.5863 27.9282C62.4165 37.8412 61.3555 48.7398 63.222 51.3872C64.7414 53.5386 68.3303 52.3469 69.686 50.0539C71.0482 47.7543 72.3908 34.5626 78.488 33.2035C76.9097 42.3759 78.8155 49.0877 82.149 50.2084C84.1989 50.8977 87.3294 49.6738 88.3248 47.4065C91.9858 53.8155 103.565 45.0361 104.888 42.7108C104.39 47.5546 106.237 50.3308 106.905 51.2262C107.645 52.2117 109.708 53.4355 112.262 52.1537C113.284 51.6448 114.934 50.1247 114.633 47.954C114.469 46.7946 113.172 45.983 112.707 43.1617C112.065 39.2712 113.532 27.8058 113.532 27.8058C113.532 27.8058 116.846 28.0119 117.207 24.1343C117.482 21.1648 114.783 20.0441 114.783 20.0441H114.77ZM101.574 37.4934C100.415 38.8268 97.0024 42.0989 95.9022 41.5965C94.9853 41.1843 95.8236 37.6094 97.5853 34.8461C101.502 28.7011 106.309 27.7285 106.309 27.7285C106.309 27.7285 105.66 32.7977 101.574 37.487V37.4934ZM58.8865 46.0538C57.6291 45.3517 56.2013 46.0667 54.8588 47.0329C53.8109 47.7865 52.7107 48.6239 51.2109 48.5015C49.6457 48.3727 49.089 47.5096 48.9253 45.8606C61.6044 41.9314 63.5822 29.7381 62.4165 26.5368C61.7092 24.5787 60.4124 22.7301 56.1227 23.3291C51.4532 23.9797 44.9499 28.5916 41.7278 40.0506C40.0905 39.954 38.7086 39.6126 38.7086 39.6126C42.7625 22.5626 46.3711 14.3436 46.823 12.16C47.4124 9.31294 45.3887 6.99409 42.887 7.53515C40.2346 8.11486 38.6693 11.4385 36.5539 18.7687C34.7726 24.9394 33.764 28.8686 32.3166 35.5288C31.6879 38.5627 30.5287 44.1859 30.4501 44.6432C30.2799 45.5707 30.0048 47.3421 29.435 47.3099C28.8653 47.2777 28.7343 45.2616 28.6884 44.6303C28.3872 40.3598 27.8174 30.8976 28.0728 24.598C28.23 20.7075 28.1776 20.0827 27.9156 19.0843C27.4179 17.1584 24.9882 16.0118 22.3358 16.6688C19.6899 17.3323 18.9106 20.2502 17.3846 24.2373C16.3564 26.9362 14.7977 31.7349 13.239 36.3984C11.7851 41.2229 9.55186 49.1778 9.43397 49.5772C9.2113 50.3566 8.94934 50.8526 8.56949 50.8526C8.0783 50.8526 8.1176 49.6158 8.0914 49.0297C8.0783 48.6883 7.94732 44.4178 8.32062 39.2583C8.87075 31.7543 10.0299 22.2921 10.3312 19.7735C10.8224 15.6447 10.5015 12.263 4.82338 13.5126C1.89592 14.1568 -0.972599 16.1213 0.31758 17.4225C1.39819 18.5239 1.51607 20.8428 1.47678 22.5239C1.44403 24.0312 0.363424 39.7736 0.212794 45.3711C0.0883607 50.2149 0.00977135 67.2713 4.79064 68.186C9.33574 69.0491 12.44 66.1763 12.9836 63.9348C13.5927 61.4227 16.8083 49.0233 17.9151 44.9137C18.5569 42.4725 19.3887 39.735 19.8405 38.3179C20.1091 37.6029 20.24 37.4032 20.4103 37.3646C20.5806 37.3195 20.8295 37.2873 20.7967 38.4918C20.8884 45.1971 21.9363 53.706 22.8597 57.2423C23.4622 59.5547 23.9796 62.7496 27.2542 62.9364C32.7423 63.252 33.6854 60.3985 34.2879 57.8156C34.6809 56.1795 36.9469 47.0393 37.1368 46.2084C37.628 46.363 40.7847 46.7817 40.7847 46.7817C40.7847 46.7817 41.2759 53.4484 45.6703 55.5096C50.0583 57.5708 56.7318 55.2519 59.4301 49.5643C59.7903 48.8107 60.216 46.7946 58.893 46.0538H58.8865ZM51.5187 33.6287C53.1887 30.9684 55.2976 29.3259 56.0311 29.8412C56.7646 30.3629 56.2865 32.8428 55.0683 34.6979C54.2104 35.999 52.0492 38.8783 48.6436 40.1021C49.0824 37.4419 50.7263 34.8783 51.5122 33.6287H51.5187Z" fill="black"/>
<path d="M236.414 58.0474C236.414 61.9637 242.308 61.9444 242.308 58.0474C242.308 54.1505 236.414 54.1505 236.414 58.0474ZM236.931 58.0474C236.931 54.7431 241.791 54.7431 241.791 58.0474C241.791 61.3518 236.931 61.3454 236.931 58.0474Z" fill="black"/>
<path d="M240.592 57.5708C240.592 56.9911 240.147 56.6561 239.584 56.6561H238.418V59.4581H238.863V58.4726H239.479L240.219 59.4581H240.684V59.3872L239.924 58.4082C240.33 58.3309 240.592 57.9895 240.592 57.5708ZM238.857 57.0362H239.544C239.891 57.0362 240.147 57.2616 240.147 57.5772C240.147 57.9122 239.891 58.1183 239.544 58.1183H238.857V57.0362Z" fill="black"/>
<path d="M197.99 35.6448C197.748 35.6448 197.617 35.7929 197.617 35.9862C197.617 36.2374 197.741 36.3984 197.977 36.3984C198.18 36.4048 198.449 36.2438 198.442 35.9926C198.442 35.7929 198.18 35.6512 197.99 35.6448Z" fill="black"/>
<path d="M199.87 36.7849C199.654 36.7784 199.451 36.9974 199.451 37.2036C199.451 37.3839 199.654 37.5643 199.863 37.5449C200.086 37.5449 200.328 37.3839 200.328 37.2036C200.328 36.991 200.092 36.772 199.87 36.7849Z" fill="black"/>
<path d="M201.494 34.5948C201.252 34.5948 201.003 34.7945 201.003 34.9556C201.003 35.2583 201.18 35.3742 201.494 35.3807C201.658 35.3807 201.808 35.2583 201.893 34.962C201.893 34.7816 201.651 34.5884 201.494 34.5884V34.5948Z" fill="black"/>
<path d="M202.876 36.5272C202.876 36.7269 202.974 36.9266 203.236 36.9266C203.452 36.9523 203.622 36.7398 203.622 36.5208C203.622 36.3211 203.459 36.1343 203.249 36.1343C202.987 36.1343 202.889 36.3211 202.882 36.5337L202.876 36.5272Z" fill="black"/>
<path d="M204.703 34.6013C204.703 34.7945 204.834 34.9749 205.076 34.9749C205.332 34.9749 205.482 34.801 205.482 34.5948C205.482 34.3952 205.338 34.2341 205.089 34.2277C204.84 34.2277 204.703 34.3952 204.703 34.6013Z" fill="black"/>
<path d="M214.088 34.8525C214.101 34.6206 213.97 34.4467 213.76 34.4016C213.512 34.3565 213.394 34.4789 213.361 34.7043C213.328 34.8589 213.4 35.0393 213.623 35.0844C213.852 35.1295 214.049 35.0522 214.094 34.8525H214.088Z" fill="black"/>
<path d="M216.485 35.2776C216.524 35.0844 216.4 34.8911 216.184 34.8525C216.013 34.8203 215.856 34.9749 215.823 35.1552C215.784 35.3678 215.869 35.5546 216.053 35.5932C216.269 35.6319 216.446 35.4902 216.485 35.2841V35.2776Z" fill="black"/>
<path d="M219.628 34.5884C219.327 34.5304 219.157 34.6399 219.111 34.8589C219.065 35.0908 219.177 35.3292 219.484 35.3871C219.72 35.4322 219.871 35.2454 219.917 35.0071C219.956 34.7881 219.864 34.6271 219.635 34.5884H219.628Z" fill="black"/>
<path d="M217.736 36.2953C217.461 36.2502 217.245 36.3598 217.199 36.611C217.159 36.8171 217.303 37.0361 217.592 37.0876C217.795 37.1263 217.998 36.9652 218.037 36.7656C218.083 36.5465 217.945 36.3404 217.729 36.2953H217.736Z" fill="black"/>
<path d="M220.277 36.495C220.028 36.4435 219.825 36.5465 219.773 36.7913C219.727 37.0103 219.884 37.2229 220.133 37.2615C220.342 37.3002 220.571 37.152 220.617 36.933C220.67 36.7011 220.499 36.5208 220.277 36.4886V36.495Z" fill="black"/>
<path d="M216.007 41.2873C215.62 41.3646 215.502 42.0667 214.848 42.1182C213.309 42.3115 211.815 41.7833 209.916 41.8413C208.554 41.8799 207.473 42.1891 206.013 42.305C204.605 42.4145 204.12 41.6867 202.797 41.5256C202.195 41.4483 202.09 41.7897 202.542 42.3566C202.967 42.7881 203.714 43.2004 204.297 43.1875C205.495 43.1875 206.504 43.4322 207.689 43.355C207.873 43.3485 208.6 43.2777 208.79 43.2648C210.636 43.0973 212.32 43.5611 214.029 43.0844C213.439 43.619 212.961 44.4564 212.123 44.8622C211.219 45.2938 209.576 45.2938 208.279 45.21C206.969 45.1199 205.862 44.4242 204.945 43.9347C204.696 44.6625 205.135 44.9395 205.705 45.4355C206.347 46.0023 207.349 46.7753 208.862 46.8139C211.049 46.8719 212.771 46.6593 213.872 44.8815C214.212 44.3018 215.116 43.1037 216.053 42.6593C216.583 42.4145 217.788 41.8541 217.592 41.5514C217.231 41.1005 216.518 41.1778 216.007 41.2938V41.2873Z" fill="black"/>
<path d="M214.671 26.6657C214.965 26.5497 215.214 26.4273 215.588 26.35C215.843 26.2985 216.216 26.2599 216.472 26.2599C217.055 26.2599 217.428 26.2599 217.932 26.3436C218.725 26.4724 220.218 27.2389 220.342 26.904C220.48 26.2728 219.917 25.7639 219.491 25.5384C218.43 24.9781 216.819 24.6882 215.378 25.2615C214.893 25.4869 214.73 25.6802 214.271 25.9829C213.957 26.189 213.374 26.5304 213.407 26.8138C213.459 27.0393 214.284 26.8138 214.671 26.6721V26.6657Z" fill="black"/>
<path d="M206.694 38.8847C207.408 39.0586 207.257 38.4725 207.729 38.6335C208.004 38.7366 208.069 39.2132 208.868 39.5739C209.667 39.9346 210.466 39.5031 211.187 38.8654C211.58 38.4918 212.28 38.4596 212.313 38.2857C212.333 38.1955 212.189 38.1311 212.13 38.0474C211.992 37.8477 211.861 37.5965 211.658 37.5449C210.82 37.3002 210.623 38.1826 209.772 38.1762C208.58 38.1762 208.331 37.4226 207.696 37.487C207.179 37.5449 206.903 38.3243 206.55 38.3759C206.268 38.3179 206.327 38.7881 206.687 38.8783L206.694 38.8847Z" fill="black"/>
<path d="M203.026 30.8396C203.531 30.2728 203.786 31.4129 204.127 31.8638C204.343 32.1601 204.585 32.5143 204.886 32.5401C205.397 32.5916 206.065 32.1858 205.816 31.4451C205.666 31.2518 205.26 31.6383 205.102 31.5095C204.487 30.9362 205.043 29.7639 203.766 29.1327C202.404 28.4628 200.282 28.6947 199.437 29.7381C199.11 30.1439 198.75 30.5948 198.481 31.284C198.35 31.7414 198.232 32.2116 198.638 32.4499C198.979 32.6238 199.699 32.9717 200.276 32.8042C200.341 32.5916 200.158 32.4821 200.033 32.4821C199.673 32.4692 199.418 32.1536 199.424 32.0055C199.47 31.5224 199.974 30.743 200.57 30.4338C201.114 30.0538 201.533 30.2599 201.697 30.5562C201.684 30.7881 201.599 30.962 201.396 31.0071C201.081 31.0715 200.859 30.8074 200.623 30.9105C200.184 31.3613 200.354 31.9088 200.511 32.0956C200.669 32.2824 200.852 32.3533 200.918 32.2953C201.212 31.9282 201.92 31.9346 202.627 31.9926C202.928 31.78 202.948 31.2712 203.033 30.8396H203.026Z" fill="black"/>
<path d="M220.31 31.677C220.414 31.3356 220.375 31.0522 220.211 30.5819C219.648 29.1778 217.939 28.379 216.4 28.8686C215.843 29.0489 214.979 29.8219 214.671 30.2728C214.297 30.8332 214.055 31.8316 213.57 31.8509C213.381 31.7865 213.564 31.3678 213.282 31.4C212.916 31.4773 212.693 31.7929 212.791 32.1665C212.863 32.3533 213.027 32.495 213.289 32.5208C214.153 32.6303 214.291 31.8444 214.618 31.3935C214.893 31.02 215.47 30.4402 215.778 30.2663C216.059 30.1053 216.478 29.9829 216.838 30.2534C217.048 30.4274 216.838 30.8138 216.688 30.8911C216.288 30.9233 215.915 30.7816 215.725 30.8203C215.535 30.8589 215.254 31.3613 215.214 31.9861C215.633 32.1536 215.732 31.8444 216.144 31.8316C216.806 31.8251 217.454 32.2502 217.795 31.9217C218.135 31.5932 218.122 30.9877 218.122 30.7237C218.685 30.7494 218.941 31.5288 218.705 31.9346C218.515 32.1472 218.063 32.1085 218.063 32.5014C219.982 32.8815 220.165 32.0956 220.316 31.6641L220.31 31.677Z" fill="black"/>
<path d="M230.814 49.1521C230.854 48.9137 231.712 49.4033 232.642 47.954C232.818 47.6899 233.604 46.305 233.152 45.9121C232.786 45.5901 233.015 45.4548 233.218 45.2358C233.788 44.6303 234.364 44.1343 235.582 42.8074C236.473 41.8348 237.966 40.5981 236.997 39.6448C236.492 39.1488 235.648 38.6979 234.737 38.2664C233.82 37.8284 232.884 37.5127 232.347 37.4741C231.063 37.3904 229.812 42.2342 229.832 42.8719C229.871 43.5546 230.114 43.6255 230.042 43.7285C229.963 43.8509 228.647 43.5933 227.789 45.0941C227.212 46.1054 226.957 47.3163 227.553 47.6964C228.155 48.0828 226.885 48.4371 225.909 49.326C224.737 50.3952 223.787 51.9798 223.722 52.1795C223.545 52.7205 223.492 53.1263 224.946 54.1763C226.099 55.0072 228.214 55.5031 228.588 55.5547C229.734 55.7221 230.199 55.1489 230.434 54.0603C230.703 52.7914 230.86 52.0378 230.991 51.4516C231.502 49.1778 230.762 49.4741 230.827 49.1392L230.814 49.1521ZM232.497 42.1826C233.198 41.4548 232.956 42.8461 232.753 43.297C232.484 43.8702 232.288 44.6432 231.509 44.2374C230.533 43.7285 231.751 42.962 232.497 42.1826ZM229.871 49.429C229.662 49.4548 229.505 49.5321 229.393 49.7318C229.288 49.925 229.066 51.2519 228.116 51.3679C227.278 51.4774 228.136 50.3824 228.293 49.8091C228.411 49.3646 228.103 49.0039 227.959 48.8815C227.54 48.5144 228.123 48.231 228.273 48.3211C228.725 48.6174 228.679 48.7398 230.022 48.8236C230.703 48.8622 230.277 49.3775 229.878 49.4226L229.871 49.429ZM230.166 45.0554C229.727 44.991 229.446 45.107 229.537 44.7205C229.635 44.3405 229.812 44.2696 230.29 44.2503C230.762 44.2374 231.227 44.6496 231.685 45.0361C232.118 45.4033 232.288 45.5192 232.163 45.7318C232.039 45.9443 231.561 45.7962 231.312 45.5965C231.083 45.4226 230.605 45.1134 230.166 45.0554Z" fill="black"/>
<path d="M194.192 51.4194C193.799 50.9814 191.271 48.5402 191.12 48.392C190.688 47.9733 190.93 47.8638 191.1 47.574C191.369 47.1166 190.439 44.6754 189.286 44.5595C188.383 44.4693 189.168 44.3469 189.175 43.8252C189.175 43.4838 188.671 40.9459 188.258 39.4258C187.767 37.6351 186.654 37.5578 186.215 37.5836C185.874 37.6094 184.119 38.0602 182.94 39.0264C181.709 39.9475 181.689 40.6174 181.846 41.0941C181.971 41.4741 182.56 42.5305 183.019 43.1037C184.329 44.6818 186.28 45.0812 185.468 45.6352C185.232 45.8864 185.298 46.3244 185.573 47.3034C185.796 47.9089 186.018 48.4435 186.234 48.7849C186.955 50.0989 187.773 49.5965 187.872 49.8026C187.937 49.9315 187.708 50.0732 187.721 50.6722C187.721 50.9685 188.166 51.8123 188.481 52.8687C188.926 54.3437 189.574 55.8123 190.498 55.8445C192.391 55.9089 194.761 54.363 194.997 53.4677C195.253 52.4951 194.598 51.8767 194.192 51.4194ZM186.549 41.8799C187.02 43.8123 187.688 43.896 187.335 44.231C186.785 44.7527 186.117 43.8058 186.005 42.9749C185.92 42.3308 186.241 40.6239 186.549 41.8799ZM186.935 45.8992C186.621 46.1762 186.523 46.4661 186.326 46.1183C186.13 45.7769 186.169 45.6802 186.451 45.326C186.732 44.9717 187.38 44.9266 187.924 44.8687C188.435 44.8171 188.697 44.6883 188.625 44.9266C188.527 45.2358 188.173 45.3839 187.891 45.4226C187.629 45.4612 187.25 45.6158 186.935 45.8992ZM190.504 51.0973C189.692 51.2584 189.234 49.7833 189.168 49.5708C189.103 49.3646 188.743 49.5901 188.566 49.5708C188.186 49.5321 187.872 49.3002 188.566 49.0168C189.751 48.5402 189.719 48.5208 190.151 48.1794C190.288 48.0699 190.635 48.2503 190.314 48.7785C190.177 48.991 189.967 48.8944 190.013 49.3711C190.072 49.983 191.395 50.917 190.504 51.0973Z" fill="black"/>
<path d="M242.603 49.822C247.259 48.334 246.369 43.3099 245.818 43.3099C245.367 43.3099 244.574 45.3517 242.04 45.2294C243.677 43.3485 243.86 40.714 243.271 41.2036C243.081 41.3582 242.229 42.6851 240.592 43.7736C241.358 41.049 241.778 38.1826 241.778 35.2196C241.778 23.1423 234.953 12.6302 224.894 7.21309C222.916 3.79923 220.12 1.26137 215.483 2.69133C214.383 -1.23783 202.62 -0.76118 197.401 3.44496C195.973 4.59794 194.722 5.86687 193.622 7.28394C183.634 12.7268 176.869 23.1938 176.869 35.2196C176.869 38.1504 177.282 40.991 178.035 43.6899C176.712 42.7688 176.037 41.706 175.527 41.1907C174.963 40.7205 175.121 43.3614 176.764 45.2358C174.957 45.2938 174.007 44.3533 173.287 43.4645C172.481 42.5756 171.826 45.8091 173.496 47.9798C174.728 49.5772 176.227 49.8413 176.227 49.8413C175.225 50.1311 174.308 49.6287 174.046 49.4935C173.509 49.2036 174.354 51.7994 179.286 52.5531C180.137 52.6819 181.074 52.6754 182.043 52.5015C187.819 61.3067 197.879 67.1425 209.327 67.1425C220.775 67.1425 230.88 61.2745 236.65 52.4371C236.898 52.4822 237.147 52.5273 237.416 52.5531C242.518 53.0426 245.236 50.0474 244.96 49.5192C244.803 49.2229 243.493 50.3244 242.603 49.8284V49.822ZM223.545 35.5997C223.545 35.5997 223.545 35.5932 223.545 35.5868C223.361 36.611 223.093 38.4789 222.641 40.0506C221.816 42.9234 220.906 44.1343 219.91 45.2809C219.144 46.1633 218.502 46.7366 217.245 47.896C216.151 48.9073 215.332 49.6094 213.754 50.5047C213.02 50.9234 211.796 51.793 209.536 51.8123C207.139 51.8381 205.391 50.6464 204.441 50.0539C203.367 49.3904 202.948 49.0555 201.992 48.3018C201.278 47.7414 200.164 46.8332 199.621 46.2728C198.697 45.3195 197.722 44.2438 196.955 42.8912C196.189 41.5965 195.776 40.5981 195.279 38.4532C195.167 37.9829 194.873 36.4886 194.676 35.5932C194.408 35.8187 193.897 35.6963 193.497 35.2905C192.869 34.6464 192.168 33.0747 192.22 31.7027C192.266 30.5175 192.535 29.21 193.249 29.0489C193.779 28.9265 194.015 29.1906 194.244 29.6995C194.368 29.9765 194.48 30.7365 194.48 30.7365C194.48 30.7365 194.676 28.2245 196.307 27.0328C196.759 26.7043 197.551 26.4016 198.566 26.0602C198.265 26.408 198.121 26.8267 198.232 27.1294C198.357 27.4708 199.824 26.6206 200.603 26.4209C201.186 26.2728 201.481 26.2792 202.057 26.247C202.306 26.2341 202.686 26.2534 202.941 26.2856C203.36 26.3307 203.55 26.4595 203.878 26.5433C204.277 26.6463 205.063 26.8396 205.148 26.6077C205.188 26.3372 204.559 26.028 204.238 25.8347C203.845 25.59 203.518 25.3581 203.085 25.1842C202.738 25.0618 202.201 24.9652 201.73 24.9587C204.939 23.7542 208.881 21.8476 211.959 18.0924C211.409 21.2099 209.896 23.9925 206.923 26.7816C212.208 27.4451 217.932 19.8573 218.181 18.2792C218.974 21.9056 223.761 26.4209 223.964 29.6995C224.213 29.1971 224.429 28.9265 224.959 29.0489C225.667 29.21 225.961 30.5175 225.988 31.7027C226.014 33.0554 225.379 34.685 224.711 35.2905C224.108 35.838 223.715 35.7156 223.532 35.5932C223.532 35.5932 223.532 35.5997 223.532 35.6061L223.545 35.5997ZM189.515 28.7591C190.773 20.5658 200.898 22.6334 206.786 17.0682C203.753 22.7236 192.947 20.7204 189.515 28.7591ZM209.189 64.6175C198.914 64.6175 189.836 59.4903 184.453 51.7028C185.082 51.3936 185.704 51.0072 186.32 50.5176C186.372 50.479 186.418 50.4468 186.47 50.4081C184.617 48.946 184.008 46.1891 184.669 45.3711C183.222 45.4033 182.023 45.2551 181.008 45.0039C179.908 41.9443 179.299 38.6528 179.299 35.2261C179.299 25.8412 183.798 17.474 190.786 12.0891C189.692 14.5497 188.861 17.3903 188.271 20.7462C189.719 19.1165 191.716 17.8669 194.84 17.1777C190.924 19.1938 188.376 21.4869 187.263 24.5401C186.117 27.6898 185.986 34.3952 191.421 40.276C190.747 40.4177 190.184 40.7978 189.725 41.2873C190.02 42.5305 189.738 43.7865 189.738 43.7865C190.766 44.0764 192.377 46.5627 191.651 47.7286L193.38 49.3582C195.429 49.0555 197.204 48.3598 198.501 46.801C198.521 46.8268 198.54 46.8461 198.56 46.8654C198.966 47.3228 199.123 47.9604 199.123 48.3018C199.123 49.0748 199.038 51.2584 199.038 51.2584C198.37 50.5692 197.355 50.0152 197.466 51.02C197.604 52.2825 197.512 53.4935 197.132 54.7817C196.792 55.9412 195.678 57.2294 195.017 57.4935C195.757 57.983 197.453 56.6948 198.042 55.5354C198.363 54.9106 198.501 54.3437 198.566 53.9315C198.652 53.4226 199.064 54.0152 199.189 54.1956C199.392 54.4919 199.516 54.7882 199.654 55.0523C199.536 55.4903 199.385 55.9862 198.946 56.9267C198.363 58.202 196.648 59.5418 198.396 60.0507C198.959 60.1859 199.3 59.9669 199.529 59.7673C200.492 58.9106 201.383 57.0491 201.848 55.7608C202.234 55.5032 202.489 55.1553 202.496 55.1875C202.666 55.7737 203 56.4178 203.373 56.9073C202.758 59.793 201.671 60.6368 202.051 61.4549C202.182 61.7318 202.476 61.9573 202.476 61.9573C202.679 62.0797 202.869 62.1376 203.053 62.1441C203.341 62.1441 203.635 62.0797 203.865 61.822C204.827 60.6626 205.522 58.6658 205.718 57.384C206.013 57.1714 206.183 56.9396 206.183 56.9396C206.674 57.6481 207.349 58.2149 208.2 58.4339C207.283 59.078 206.34 60.4436 206.792 61.9444C207.198 63.1232 208.744 63.6513 210.014 63.5612C211.783 63.4323 213.282 62.1763 212.837 60.1924C212.608 59.355 212.071 58.8784 211.462 58.4146C212.608 58.0024 212.889 57.4291 213.119 57.0426C213.276 56.7721 213.466 57.004 213.787 57.2874C214.304 59.5418 215.155 61.1264 215.653 61.7447C215.876 61.9959 216.177 62.1634 216.518 62.2214C216.74 62.2278 216.904 62.2021 217.1 62.1054C217.1 62.1054 217.526 61.9122 217.631 61.6288C217.913 60.8623 216.825 59.6513 216.269 57.1843C216.924 56.3792 217.29 55.136 217.29 55.136C217.29 55.136 217.369 55.2519 217.493 55.3937C218.044 57.9637 219.288 59.3035 219.622 59.6449C219.989 60.0185 220.27 60.0571 220.591 60.0764C220.991 60.1086 221.259 59.9863 221.508 59.7222C222.052 58.9299 220.689 57.6932 220.021 56.1924C219.825 55.7415 219.661 55.3743 219.556 55.0136C219.792 54.6851 219.962 54.3953 219.962 54.3953C220.401 53.6094 220.237 53.6223 220.833 55.1424C221.79 57.5901 224.226 58.2149 223.27 57.0877C222.314 55.9605 221.521 54.3373 221.443 52.6432C221.39 51.4387 221.364 50.7366 220.833 50.5434C220.46 50.4017 220.211 50.5434 220.041 51.0136C219.7 51.9733 219.059 54.2729 218.391 54.1763C217.723 54.0796 217.631 53.1199 217.061 53.268C215.941 53.5643 216.151 55.7479 214.946 56.1859C214.206 56.45 213.8 54.7882 213.119 55.0007C212.673 55.136 212.313 55.8445 211.717 56.5466C211.075 57.2874 210.309 57.3518 209.792 57.8027C208.619 57.2165 207.539 56.8751 206.936 55.4065C206.38 54.041 205.319 56.5338 204.749 56.0957C203.793 55.355 203.838 53.8027 202.941 53.3002C202.103 52.8365 201.409 55.0587 200.931 54.4017C200.649 54.0217 200.446 53.7189 200.289 53.4677C200.315 51.5289 200.328 50.1054 200.361 48.6754C204.022 51.6448 206.792 53.3711 209.445 53.3389C212.143 53.3067 214.998 51.5611 218.312 48.7914C218.836 55.2262 219.504 51.1553 219.53 48.1859C219.556 47.4774 219.583 47.4451 220.251 46.5112C220.355 46.3566 220.454 46.2213 220.545 46.0989C221.652 48.1988 222.995 48.9975 224.455 49.2745C225.379 48.0893 226.498 47.5482 226.498 47.5482C225.83 46.3115 227.33 43.4 229.184 42.9878C229.184 42.9878 229.066 42.1118 229.229 41.1263C228.738 40.714 228.096 40.3469 227.232 40.0828C227.232 40.0828 231.371 36.2503 231.371 30.6979C231.371 23.5545 222.543 19.9603 222.726 13.5706C224.776 20.6431 230.395 21.3774 231.947 27.941C231.993 20.5787 228.044 14.1696 227.376 12.5207C227.252 12.2179 227.127 11.9023 226.996 11.5931C234.338 16.9523 239.112 25.5449 239.112 35.2068C239.112 38.6722 238.496 42.0023 237.37 45.0876C236.276 45.326 235.222 45.4162 234.298 45.3968L233.794 45.7704C234.796 47.1617 233.035 49.764 231.856 49.6223C231.908 49.7253 231.947 49.8349 231.974 49.9572C232.412 50.3695 233.074 50.9878 234.063 51.5289C228.692 59.4066 219.563 64.6046 209.215 64.6046L209.189 64.6175ZM209.084 59.2004C209.386 59.078 209.988 59.0265 210.361 59.2777C210.722 59.5161 210.905 59.6835 211.075 59.9927C211.252 60.3148 211.409 60.7785 211.298 61.2874C211.141 61.9959 210.198 62.5434 209.183 62.2858C207.486 61.8607 208.089 59.5933 209.084 59.194V59.2004Z" fill="black"/>
</g>
<defs>
<clipPath id="clip0_394_1372">
<rect width="165" height="68" fill="white"/>
</clipPath>
</defs>
</svg>
