<svg width="87" height="87" viewBox="0 0 87 87" fill="none" xmlns="http://www.w3.org/2000/svg">
<g clip-path="url(#clip0_966_329)">
<path d="M71.0114 29.2953C78.9127 29.2953 85.3406 22.8668 85.3406 14.966C85.3406 7.06515 78.9127 0.636719 71.0114 0.636719C63.1104 0.636719 56.6825 7.06515 56.6825 14.966C56.6825 18.3364 57.8597 21.4329 59.8145 23.8826L54.0039 29.6924C51.0112 27.2088 47.1715 25.7125 42.9877 25.7125C38.4055 25.7125 34.246 27.5175 31.1505 30.4388L25.4313 24.7193C27.8188 22.1584 29.2929 18.735 29.2929 14.966C29.2929 7.06515 22.865 0.636719 14.964 0.636719C7.06268 0.636719 0.634766 7.06515 0.634766 14.966C0.634766 22.8668 7.06268 29.2953 14.964 29.2953C18.3345 29.2953 21.4309 28.1179 23.8806 26.1631L29.6906 31.9735C27.2068 34.9661 25.7104 38.8061 25.7104 42.9897C25.7104 47.5714 27.5157 51.7313 30.4368 54.8269L24.7171 60.5458C22.1564 58.1582 18.733 56.6841 14.964 56.6841C7.06268 56.6841 0.634766 63.1124 0.634766 71.0134C0.634766 78.9141 7.06268 85.3426 14.964 85.3426C22.865 85.3426 29.2929 78.9141 29.2929 71.0134C29.2929 67.6429 28.1157 64.5465 26.1609 62.0966L31.9715 56.2868C34.9641 58.7704 38.8039 60.2669 42.9877 60.2669C47.5699 60.2669 51.7296 58.4617 54.8249 55.5406L60.544 61.2599C58.1566 63.8208 56.6825 67.2444 56.6825 71.0134C56.6825 78.9141 63.1104 85.3426 71.0114 85.3426C78.9127 85.3426 85.3406 78.9141 85.3406 71.0134C85.3406 63.1124 78.9127 56.6841 71.0114 56.6841C67.6409 56.6841 64.5445 57.8613 62.0948 59.8163L56.2848 54.0059C58.7686 51.0133 60.2649 47.1733 60.2649 42.9897C60.2649 38.4077 58.4596 34.2481 55.5386 31.1523L61.2583 25.4336C63.819 27.8212 67.2424 29.2953 71.0114 29.2953ZM63.7552 24.7648C63.8959 20.8469 67.1185 17.7009 71.0702 17.7009C74.9934 17.7009 78.1972 20.8017 78.3812 24.6799C76.33 26.24 73.7812 27.1777 71.0114 27.1777C68.2923 27.1777 65.7867 26.2734 63.7552 24.7648ZM67.0397 11.5527C67.0397 9.33065 68.8478 7.52218 71.0702 7.52218C73.2929 7.52218 75.101 9.33065 75.101 11.5527C75.101 13.7748 73.2929 15.5833 71.0702 15.5833C68.8478 15.5833 67.0397 13.7748 67.0397 11.5527ZM71.0114 2.75436C77.7448 2.75436 83.223 8.23255 83.223 14.966C83.223 17.9989 82.1049 20.771 80.2678 22.9087C79.5927 19.9807 77.5576 17.5704 74.8612 16.3834C76.2936 15.2569 77.2186 13.5126 77.2186 11.5527C77.2186 8.16222 74.4604 5.40454 71.0702 5.40454C67.6803 5.40454 64.9221 8.16222 64.9221 11.5527C64.9221 13.5126 65.8471 15.2569 67.2794 16.3834C64.5517 17.5842 62.4978 20.0355 61.8468 23.0095C59.9568 20.8584 58.8002 18.0479 58.8002 14.966C58.8002 8.23255 64.2779 2.75436 71.0114 2.75436ZM2.7524 14.966C2.7524 8.23255 8.23059 2.75436 14.964 2.75436C21.6975 2.75436 27.1752 8.23255 27.1752 14.966C27.1752 17.9991 26.0569 20.7712 24.22 22.9089C23.5447 19.9809 21.5099 17.5705 18.8133 16.3834C20.2458 15.2569 21.1707 13.5126 21.1707 11.5527C21.1707 8.16222 18.4124 5.40454 15.0224 5.40454C11.6325 5.40454 8.87424 8.16222 8.87424 11.5527C8.87424 13.5126 9.79917 15.2569 11.2316 16.3834C8.50389 17.5842 6.44996 20.0355 5.79904 23.0093C3.90889 20.8583 2.7524 18.0477 2.7524 14.966ZM10.9919 11.5527C10.9919 9.33065 12.7999 7.52218 15.0224 7.52218C17.245 7.52218 19.053 9.33065 19.053 11.5527C19.053 13.7748 17.245 15.5833 15.0224 15.5833C12.7999 15.5833 10.9919 13.7748 10.9919 11.5527ZM7.70731 24.7646C7.84807 20.8467 11.0708 17.7009 15.0224 17.7009C18.9457 17.7009 22.1494 20.8018 22.3332 24.6803C20.2823 26.2402 17.7337 27.1777 14.964 27.1777C12.2449 27.1777 9.73894 26.2732 7.70731 24.7646ZM7.70738 80.8119C7.84865 76.8945 11.0711 73.7483 15.0224 73.7483C18.9453 73.7483 22.149 76.8496 22.3332 80.7277C20.2824 82.2873 17.7337 83.225 14.964 83.225C12.2449 83.225 9.73901 82.3206 7.70738 80.8119ZM10.9919 67.6001C10.9919 65.3779 12.7999 63.5694 15.0224 63.5694C17.245 63.5694 19.053 65.3779 19.053 67.6001C19.053 69.8222 17.245 71.6307 15.0224 71.6307C12.7999 71.6307 10.9919 69.8222 10.9919 67.6001ZM24.2198 78.9565C23.5445 76.0282 21.5097 73.6177 18.8133 72.4307C20.2458 71.3041 21.1707 69.5598 21.1707 67.6001C21.1707 64.2096 18.4124 61.4518 15.0224 61.4518C11.6325 61.4518 8.87424 64.2096 8.87424 67.6001C8.87424 69.5598 9.79917 71.3041 11.2316 72.4307C8.50402 73.6314 6.45022 76.0828 5.79919 79.0568C3.90895 76.9057 2.7524 74.0952 2.7524 71.0134C2.7524 64.2799 8.23059 58.8017 14.964 58.8017C21.6975 58.8017 27.1752 64.2799 27.1752 71.0134C27.1752 74.0465 26.0569 76.8187 24.2198 78.9565ZM33.8784 55.0783C33.9915 50.108 38.0623 46.0969 43.0595 46.0969C48.022 46.0969 52.068 50.0529 52.235 54.975C49.6725 56.9569 46.4702 58.1493 42.9877 58.1493C39.5668 58.1493 36.4179 56.9969 33.8784 55.0783ZM37.8984 38.8186C37.8984 35.9718 40.2134 33.6568 43.0595 33.6568C45.9056 33.6568 48.2208 35.9718 48.2208 38.8186C48.2208 41.6641 45.9056 43.9793 43.0595 43.9793C40.2134 43.9793 37.8984 41.6641 37.8984 38.8186ZM63.7552 80.8122C63.8965 76.8947 67.1189 73.7483 71.0702 73.7483C74.9932 73.7483 78.1965 76.8494 78.381 80.7274C76.33 82.2873 73.7812 83.225 71.0114 83.225C68.2923 83.225 65.7867 82.3208 63.7552 80.8122ZM67.0397 67.6001C67.0397 65.3779 68.8478 63.5694 71.0702 63.5694C73.2929 63.5694 75.101 65.3779 75.101 67.6001C75.101 69.8222 73.2929 71.6307 71.0702 71.6307C68.8478 71.6307 67.0397 69.8222 67.0397 67.6001ZM83.223 71.0134C83.223 74.0465 82.1049 76.8185 80.2676 78.9562C79.5923 76.028 77.5576 73.6177 74.8612 72.4307C76.2936 71.3041 77.2186 69.5598 77.2186 67.6001C77.2186 64.2096 74.4604 61.4518 71.0702 61.4518C67.6803 61.4518 64.9221 64.2096 64.9221 67.6001C64.9221 69.5598 65.8471 71.3041 67.2794 72.4307C64.5517 73.6314 62.498 76.0828 61.847 79.057C59.9568 76.9059 58.8002 74.0952 58.8002 71.0134C58.8002 64.2799 64.2779 58.8017 71.0114 58.8017C77.7448 58.8017 83.223 64.2799 83.223 71.0134ZM54.1661 53.1936C53.4427 49.3509 50.7724 46.1941 47.2196 44.7821C49.1022 43.4651 50.3385 41.2848 50.3385 38.8186C50.3385 34.8044 47.0731 31.5392 43.0595 31.5392C39.0461 31.5392 35.7807 34.8044 35.7807 38.8186C35.7807 41.2848 37.017 43.4651 38.8994 44.7821C35.3053 46.2104 32.6178 49.4252 31.9319 53.3285C29.3947 50.617 27.8281 46.987 27.8281 42.9897C27.8281 34.6307 34.6287 27.8301 42.9877 27.8301C51.3467 27.8301 58.1473 34.6307 58.1473 42.9897C58.1473 46.9215 56.63 50.497 54.1661 53.1936Z" fill="#A6E2B9"/>
<mask id="mask0_966_329" style="mask-type:luminance" maskUnits="userSpaceOnUse" x="-2" y="-2" width="90" height="90">
<path d="M87.4578 -1.48047H-1.4834V87.4607H87.4578V-1.48047Z" fill="white"/>
<path d="M71.0114 29.2953C78.9127 29.2953 85.3406 22.8668 85.3406 14.966C85.3406 7.06515 78.9127 0.636719 71.0114 0.636719C63.1104 0.636719 56.6825 7.06515 56.6825 14.966C56.6825 18.3364 57.8597 21.4329 59.8145 23.8826L54.0039 29.6924C51.0112 27.2088 47.1715 25.7125 42.9877 25.7125C38.4055 25.7125 34.246 27.5175 31.1505 30.4388L25.4313 24.7193C27.8188 22.1584 29.2929 18.735 29.2929 14.966C29.2929 7.06515 22.865 0.636719 14.964 0.636719C7.06268 0.636719 0.634766 7.06515 0.634766 14.966C0.634766 22.8668 7.06268 29.2953 14.964 29.2953C18.3345 29.2953 21.4309 28.1179 23.8806 26.1631L29.6906 31.9735C27.2068 34.9661 25.7104 38.8061 25.7104 42.9897C25.7104 47.5714 27.5157 51.7313 30.4368 54.8269L24.7171 60.5458C22.1564 58.1582 18.733 56.6841 14.964 56.6841C7.06268 56.6841 0.634766 63.1124 0.634766 71.0134C0.634766 78.9141 7.06268 85.3426 14.964 85.3426C22.865 85.3426 29.2929 78.9141 29.2929 71.0134C29.2929 67.6429 28.1157 64.5465 26.1609 62.0966L31.9715 56.2868C34.9641 58.7704 38.8039 60.2669 42.9877 60.2669C47.5699 60.2669 51.7296 58.4617 54.8249 55.5406L60.544 61.2599C58.1566 63.8208 56.6825 67.2444 56.6825 71.0134C56.6825 78.9141 63.1104 85.3426 71.0114 85.3426C78.9127 85.3426 85.3406 78.9141 85.3406 71.0134C85.3406 63.1124 78.9127 56.6841 71.0114 56.6841C67.6409 56.6841 64.5445 57.8613 62.0948 59.8163L56.2848 54.0059C58.7686 51.0133 60.2649 47.1733 60.2649 42.9897C60.2649 38.4077 58.4596 34.2481 55.5386 31.1523L61.2583 25.4336C63.819 27.8212 67.2424 29.2953 71.0114 29.2953ZM63.7552 24.7648C63.8959 20.8469 67.1185 17.7009 71.0702 17.7009C74.9934 17.7009 78.1972 20.8017 78.3812 24.6799C76.33 26.24 73.7812 27.1777 71.0114 27.1777C68.2923 27.1777 65.7867 26.2734 63.7552 24.7648ZM67.0397 11.5527C67.0397 9.33065 68.8478 7.52218 71.0702 7.52218C73.2929 7.52218 75.101 9.33065 75.101 11.5527C75.101 13.7748 73.2929 15.5833 71.0702 15.5833C68.8478 15.5833 67.0397 13.7748 67.0397 11.5527ZM71.0114 2.75436C77.7448 2.75436 83.223 8.23255 83.223 14.966C83.223 17.9989 82.1049 20.771 80.2678 22.9087C79.5927 19.9807 77.5576 17.5704 74.8612 16.3834C76.2936 15.2569 77.2186 13.5126 77.2186 11.5527C77.2186 8.16222 74.4604 5.40454 71.0702 5.40454C67.6803 5.40454 64.9221 8.16222 64.9221 11.5527C64.9221 13.5126 65.8471 15.2569 67.2794 16.3834C64.5517 17.5842 62.4978 20.0355 61.8468 23.0095C59.9568 20.8584 58.8002 18.0479 58.8002 14.966C58.8002 8.23255 64.2779 2.75436 71.0114 2.75436ZM2.7524 14.966C2.7524 8.23255 8.23059 2.75436 14.964 2.75436C21.6975 2.75436 27.1752 8.23255 27.1752 14.966C27.1752 17.9991 26.0569 20.7712 24.22 22.9089C23.5447 19.9809 21.5099 17.5705 18.8133 16.3834C20.2458 15.2569 21.1707 13.5126 21.1707 11.5527C21.1707 8.16222 18.4124 5.40454 15.0224 5.40454C11.6325 5.40454 8.87424 8.16222 8.87424 11.5527C8.87424 13.5126 9.79917 15.2569 11.2316 16.3834C8.50389 17.5842 6.44996 20.0355 5.79904 23.0093C3.90889 20.8583 2.7524 18.0477 2.7524 14.966ZM10.9919 11.5527C10.9919 9.33065 12.7999 7.52218 15.0224 7.52218C17.245 7.52218 19.053 9.33065 19.053 11.5527C19.053 13.7748 17.245 15.5833 15.0224 15.5833C12.7999 15.5833 10.9919 13.7748 10.9919 11.5527ZM7.70731 24.7646C7.84807 20.8467 11.0708 17.7009 15.0224 17.7009C18.9457 17.7009 22.1494 20.8018 22.3332 24.6803C20.2823 26.2402 17.7337 27.1777 14.964 27.1777C12.2449 27.1777 9.73894 26.2732 7.70731 24.7646ZM7.70738 80.8119C7.84865 76.8945 11.0711 73.7483 15.0224 73.7483C18.9453 73.7483 22.149 76.8496 22.3332 80.7277C20.2824 82.2873 17.7337 83.225 14.964 83.225C12.2449 83.225 9.73901 82.3206 7.70738 80.8119ZM10.9919 67.6001C10.9919 65.3779 12.7999 63.5694 15.0224 63.5694C17.245 63.5694 19.053 65.3779 19.053 67.6001C19.053 69.8222 17.245 71.6307 15.0224 71.6307C12.7999 71.6307 10.9919 69.8222 10.9919 67.6001ZM24.2198 78.9565C23.5445 76.0282 21.5097 73.6177 18.8133 72.4307C20.2458 71.3041 21.1707 69.5598 21.1707 67.6001C21.1707 64.2096 18.4124 61.4518 15.0224 61.4518C11.6325 61.4518 8.87424 64.2096 8.87424 67.6001C8.87424 69.5598 9.79917 71.3041 11.2316 72.4307C8.50402 73.6314 6.45022 76.0828 5.79919 79.0568C3.90895 76.9057 2.7524 74.0952 2.7524 71.0134C2.7524 64.2799 8.23059 58.8017 14.964 58.8017C21.6975 58.8017 27.1752 64.2799 27.1752 71.0134C27.1752 74.0465 26.0569 76.8187 24.2198 78.9565ZM33.8784 55.0783C33.9915 50.108 38.0623 46.0969 43.0595 46.0969C48.022 46.0969 52.068 50.0529 52.235 54.975C49.6725 56.9569 46.4702 58.1493 42.9877 58.1493C39.5668 58.1493 36.4179 56.9969 33.8784 55.0783ZM37.8984 38.8186C37.8984 35.9718 40.2134 33.6568 43.0595 33.6568C45.9056 33.6568 48.2208 35.9718 48.2208 38.8186C48.2208 41.6641 45.9056 43.9793 43.0595 43.9793C40.2134 43.9793 37.8984 41.6641 37.8984 38.8186ZM63.7552 80.8122C63.8965 76.8947 67.1189 73.7483 71.0702 73.7483C74.9932 73.7483 78.1965 76.8494 78.381 80.7274C76.33 82.2873 73.7812 83.225 71.0114 83.225C68.2923 83.225 65.7867 82.3208 63.7552 80.8122ZM67.0397 67.6001C67.0397 65.3779 68.8478 63.5694 71.0702 63.5694C73.2929 63.5694 75.101 65.3779 75.101 67.6001C75.101 69.8222 73.2929 71.6307 71.0702 71.6307C68.8478 71.6307 67.0397 69.8222 67.0397 67.6001ZM83.223 71.0134C83.223 74.0465 82.1049 76.8185 80.2676 78.9562C79.5923 76.028 77.5576 73.6177 74.8612 72.4307C76.2936 71.3041 77.2186 69.5598 77.2186 67.6001C77.2186 64.2096 74.4604 61.4518 71.0702 61.4518C67.6803 61.4518 64.9221 64.2096 64.9221 67.6001C64.9221 69.5598 65.8471 71.3041 67.2794 72.4307C64.5517 73.6314 62.498 76.0828 61.847 79.057C59.9568 76.9059 58.8002 74.0952 58.8002 71.0134C58.8002 64.2799 64.2779 58.8017 71.0114 58.8017C77.7448 58.8017 83.223 64.2799 83.223 71.0134ZM54.1661 53.1936C53.4427 49.3509 50.7724 46.1941 47.2196 44.7821C49.1022 43.4651 50.3385 41.2848 50.3385 38.8186C50.3385 34.8044 47.0731 31.5392 43.0595 31.5392C39.0461 31.5392 35.7807 34.8044 35.7807 38.8186C35.7807 41.2848 37.017 43.4651 38.8994 44.7821C35.3053 46.2104 32.6178 49.4252 31.9319 53.3285C29.3947 50.617 27.8281 46.987 27.8281 42.9897C27.8281 34.6307 34.6287 27.8301 42.9877 27.8301C51.3467 27.8301 58.1473 34.6307 58.1473 42.9897C58.1473 46.9215 56.63 50.497 54.1661 53.1936Z" fill="black"/>
</mask>
<g mask="url(#mask0_966_329)">
<path d="M71.0114 29.2953C78.9127 29.2953 85.3406 22.8668 85.3406 14.966C85.3406 7.06515 78.9127 0.636719 71.0114 0.636719C63.1104 0.636719 56.6825 7.06515 56.6825 14.966C56.6825 18.3364 57.8597 21.4329 59.8145 23.8826L54.0039 29.6924C51.0112 27.2088 47.1715 25.7125 42.9877 25.7125C38.4055 25.7125 34.246 27.5175 31.1505 30.4388L25.4313 24.7193C27.8188 22.1584 29.2929 18.735 29.2929 14.966C29.2929 7.06515 22.865 0.636719 14.964 0.636719C7.06268 0.636719 0.634766 7.06515 0.634766 14.966C0.634766 22.8668 7.06268 29.2953 14.964 29.2953C18.3345 29.2953 21.4309 28.1179 23.8806 26.1631L29.6906 31.9735C27.2068 34.9661 25.7104 38.8061 25.7104 42.9897C25.7104 47.5714 27.5157 51.7313 30.4368 54.8269L24.7171 60.5458C22.1564 58.1582 18.733 56.6841 14.964 56.6841C7.06268 56.6841 0.634766 63.1124 0.634766 71.0134C0.634766 78.9141 7.06268 85.3426 14.964 85.3426C22.865 85.3426 29.2929 78.9141 29.2929 71.0134C29.2929 67.6429 28.1157 64.5465 26.1609 62.0966L31.9715 56.2868C34.9641 58.7704 38.8039 60.2669 42.9877 60.2669C47.5699 60.2669 51.7296 58.4617 54.8249 55.5406L60.544 61.2599C58.1566 63.8208 56.6825 67.2444 56.6825 71.0134C56.6825 78.9141 63.1104 85.3426 71.0114 85.3426C78.9127 85.3426 85.3406 78.9141 85.3406 71.0134C85.3406 63.1124 78.9127 56.6841 71.0114 56.6841C67.6409 56.6841 64.5445 57.8613 62.0948 59.8163L56.2848 54.0059C58.7686 51.0133 60.2649 47.1733 60.2649 42.9897C60.2649 38.4077 58.4596 34.2481 55.5386 31.1523L61.2583 25.4336C63.819 27.8212 67.2424 29.2953 71.0114 29.2953ZM63.7552 24.7648C63.8959 20.8469 67.1185 17.7009 71.0702 17.7009C74.9934 17.7009 78.1972 20.8017 78.3812 24.6799C76.33 26.24 73.7812 27.1777 71.0114 27.1777C68.2923 27.1777 65.7867 26.2734 63.7552 24.7648ZM67.0397 11.5527C67.0397 9.33065 68.8478 7.52218 71.0702 7.52218C73.2929 7.52218 75.101 9.33065 75.101 11.5527C75.101 13.7748 73.2929 15.5833 71.0702 15.5833C68.8478 15.5833 67.0397 13.7748 67.0397 11.5527ZM71.0114 2.75436C77.7448 2.75436 83.223 8.23255 83.223 14.966C83.223 17.9989 82.1049 20.771 80.2678 22.9087C79.5927 19.9807 77.5576 17.5704 74.8612 16.3834C76.2936 15.2569 77.2186 13.5126 77.2186 11.5527C77.2186 8.16222 74.4604 5.40454 71.0702 5.40454C67.6803 5.40454 64.9221 8.16222 64.9221 11.5527C64.9221 13.5126 65.8471 15.2569 67.2794 16.3834C64.5517 17.5842 62.4978 20.0355 61.8468 23.0095C59.9568 20.8584 58.8002 18.0479 58.8002 14.966C58.8002 8.23255 64.2779 2.75436 71.0114 2.75436ZM2.7524 14.966C2.7524 8.23255 8.23059 2.75436 14.964 2.75436C21.6975 2.75436 27.1752 8.23255 27.1752 14.966C27.1752 17.9991 26.0569 20.7712 24.22 22.9089C23.5447 19.9809 21.5099 17.5705 18.8133 16.3834C20.2458 15.2569 21.1707 13.5126 21.1707 11.5527C21.1707 8.16222 18.4124 5.40454 15.0224 5.40454C11.6325 5.40454 8.87424 8.16222 8.87424 11.5527C8.87424 13.5126 9.79917 15.2569 11.2316 16.3834C8.50389 17.5842 6.44996 20.0355 5.79904 23.0093C3.90889 20.8583 2.7524 18.0477 2.7524 14.966ZM10.9919 11.5527C10.9919 9.33065 12.7999 7.52218 15.0224 7.52218C17.245 7.52218 19.053 9.33065 19.053 11.5527C19.053 13.7748 17.245 15.5833 15.0224 15.5833C12.7999 15.5833 10.9919 13.7748 10.9919 11.5527ZM7.70731 24.7646C7.84807 20.8467 11.0708 17.7009 15.0224 17.7009C18.9457 17.7009 22.1494 20.8018 22.3332 24.6803C20.2823 26.2402 17.7337 27.1777 14.964 27.1777C12.2449 27.1777 9.73894 26.2732 7.70731 24.7646ZM7.70738 80.8119C7.84865 76.8945 11.0711 73.7483 15.0224 73.7483C18.9453 73.7483 22.149 76.8496 22.3332 80.7277C20.2824 82.2873 17.7337 83.225 14.964 83.225C12.2449 83.225 9.73901 82.3206 7.70738 80.8119ZM10.9919 67.6001C10.9919 65.3779 12.7999 63.5694 15.0224 63.5694C17.245 63.5694 19.053 65.3779 19.053 67.6001C19.053 69.8222 17.245 71.6307 15.0224 71.6307C12.7999 71.6307 10.9919 69.8222 10.9919 67.6001ZM24.2198 78.9565C23.5445 76.0282 21.5097 73.6177 18.8133 72.4307C20.2458 71.3041 21.1707 69.5598 21.1707 67.6001C21.1707 64.2096 18.4124 61.4518 15.0224 61.4518C11.6325 61.4518 8.87424 64.2096 8.87424 67.6001C8.87424 69.5598 9.79917 71.3041 11.2316 72.4307C8.50402 73.6314 6.45022 76.0828 5.79919 79.0568C3.90895 76.9057 2.7524 74.0952 2.7524 71.0134C2.7524 64.2799 8.23059 58.8017 14.964 58.8017C21.6975 58.8017 27.1752 64.2799 27.1752 71.0134C27.1752 74.0465 26.0569 76.8187 24.2198 78.9565ZM33.8784 55.0783C33.9915 50.108 38.0623 46.0969 43.0595 46.0969C48.022 46.0969 52.068 50.0529 52.235 54.975C49.6725 56.9569 46.4702 58.1493 42.9877 58.1493C39.5668 58.1493 36.4179 56.9969 33.8784 55.0783ZM37.8984 38.8186C37.8984 35.9718 40.2134 33.6568 43.0595 33.6568C45.9056 33.6568 48.2208 35.9718 48.2208 38.8186C48.2208 41.6641 45.9056 43.9793 43.0595 43.9793C40.2134 43.9793 37.8984 41.6641 37.8984 38.8186ZM63.7552 80.8122C63.8965 76.8947 67.1189 73.7483 71.0702 73.7483C74.9932 73.7483 78.1965 76.8494 78.381 80.7274C76.33 82.2873 73.7812 83.225 71.0114 83.225C68.2923 83.225 65.7867 82.3208 63.7552 80.8122ZM67.0397 67.6001C67.0397 65.3779 68.8478 63.5694 71.0702 63.5694C73.2929 63.5694 75.101 65.3779 75.101 67.6001C75.101 69.8222 73.2929 71.6307 71.0702 71.6307C68.8478 71.6307 67.0397 69.8222 67.0397 67.6001ZM83.223 71.0134C83.223 74.0465 82.1049 76.8185 80.2676 78.9562C79.5923 76.028 77.5576 73.6177 74.8612 72.4307C76.2936 71.3041 77.2186 69.5598 77.2186 67.6001C77.2186 64.2096 74.4604 61.4518 71.0702 61.4518C67.6803 61.4518 64.9221 64.2096 64.9221 67.6001C64.9221 69.5598 65.8471 71.3041 67.2794 72.4307C64.5517 73.6314 62.498 76.0828 61.847 79.057C59.9568 76.9059 58.8002 74.0952 58.8002 71.0134C58.8002 64.2799 64.2779 58.8017 71.0114 58.8017C77.7448 58.8017 83.223 64.2799 83.223 71.0134ZM54.1661 53.1936C53.4427 49.3509 50.7724 46.1941 47.2196 44.7821C49.1022 43.4651 50.3385 41.2848 50.3385 38.8186C50.3385 34.8044 47.0731 31.5392 43.0595 31.5392C39.0461 31.5392 35.7807 34.8044 35.7807 38.8186C35.7807 41.2848 37.017 43.4651 38.8994 44.7821C35.3053 46.2104 32.6178 49.4252 31.9319 53.3285C29.3947 50.617 27.8281 46.987 27.8281 42.9897C27.8281 34.6307 34.6287 27.8301 42.9877 27.8301C51.3467 27.8301 58.1473 34.6307 58.1473 42.9897C58.1473 46.9215 56.63 50.497 54.1661 53.1936Z" stroke="#A6E2B9" stroke-width="1.27059"/>
</g>
</g>
<defs>
<clipPath id="clip0_966_329">
<rect width="86.8235" height="86.8235" fill="white"/>
</clipPath>
</defs>
</svg>
