<svg width="768" height="399" viewBox="0 0 768 399" fill="none" xmlns="http://www.w3.org/2000/svg">
<path d="M617.25 150.25H150.25V248.25H617.25V150.25Z" stroke="#114734" stroke-width="0.5" stroke-miterlimit="10"/>
<path d="M150.478 0.25V150.475H0.25V0.25H150.478Z" fill="#114734"/>
<path d="M767.25 0.25V398.25H0.25V0.25H767.25Z" stroke="#114734" stroke-width="0.5" stroke-miterlimit="10"/>
<path d="M767.478 248.25V398.475H617.25V248.25H767.478Z" fill="#114734"/>
<path d="M150.25 230.25L617.25 230.25" stroke="#114734" stroke-width="0.5" stroke-dasharray="2 2"/>
<path d="M572.53 245.453C562.83 241.749 559.288 232.407 560.82 222.395C563.339 205.883 585.223 203.706 599.447 206.674L599.225 202.28C597.563 192.858 585.606 193.845 576.677 195.145C572.258 195.79 568.454 193.059 567.809 188.892C567.164 184.725 570.071 180.749 574.455 180.155L580.138 179.384C592.423 177.716 609.021 178.84 614.614 190.867C616.509 194.939 617.38 199.348 617.385 203.968L617.446 244.803L606.038 246.878C600.48 247.891 595.043 248.063 589.39 248.042C583.55 248.123 577.911 247.518 572.525 245.463L572.53 245.453ZM586.941 233.334C590.745 233.596 599.427 233.848 599.427 233.259C599.427 233.259 599.437 218.918 599.437 218.913C599.437 218.011 589.208 218.172 588.221 218.288C584.9 218.671 581.207 219.533 579.7 222.879C579.151 224.093 578.975 225.459 579.101 226.789C579.211 227.983 579.574 229.172 580.264 230.16C581.403 231.802 583.333 232.745 585.288 233.173C585.51 233.223 586.109 233.279 586.946 233.339L586.941 233.334Z" fill="#114734"/>
<path d="M353.577 248.174C348.911 248.134 344.25 247.666 339.857 246.436C333.911 244.768 328.55 241.231 326.322 235.25C326.111 234.681 325.929 234.106 325.773 233.517C322.861 222.456 326.448 212.087 337.463 208.121C345.918 205.073 355.049 204.886 363.725 206.68C363.751 205.027 363.761 203.299 363.458 201.873C362.506 197.399 358.752 194.95 354.293 194.582C349.833 194.214 345.556 194.441 341.182 195.136C336.723 195.847 332.822 193.136 332.152 188.953C331.437 184.474 334.536 180.71 338.99 180.115L344.321 179.405C358.752 177.48 376.428 179.269 380.464 194.874C381.527 198.981 381.84 203.032 381.84 207.365L381.825 244.788C376.01 245.857 370.215 247.106 364.32 247.655C360.823 247.983 357.2 248.21 353.572 248.179L353.577 248.174ZM352.197 233.557L363.776 233.219V218.909C355.245 217.403 342.789 217.115 343.495 226.603C343.535 228.745 344.452 230.508 346.095 231.808C347.919 232.62 350.01 233.617 352.197 233.557Z" fill="#114734"/>
<path d="M437.13 210.303C437.105 203.531 435.841 196.33 429.114 195.313C425.315 194.738 421.42 195.101 417.499 195.67L417.434 237.911C417.424 242.965 412.748 246.678 408.183 246.673C403.275 246.668 398.785 242.798 398.78 237.548L398.75 182.806C409.553 180.116 420.17 178.574 431.008 179.254C435.881 179.561 440.285 180.584 444.452 182.952C448.735 185.472 451.824 189.291 453.496 194.053C454.847 197.898 455.749 201.974 455.749 206.222L455.764 237.931C455.764 242.919 451.204 246.562 446.704 246.673C441.948 246.784 437.241 243.02 437.221 237.966L437.125 210.303H437.13Z" fill="#114734"/>
<path d="M311.648 189.82C311.648 189.82 311.693 244.426 311.693 244.431C311.693 245.167 300.27 246.834 299.091 247.011C295.04 247.605 290.989 247.827 286.922 248.039C278.603 248.477 268.425 247.389 262.212 241.287C255.999 235.185 254.619 226.674 254.649 218.658L254.76 188.798C254.78 183.89 259.738 180.468 264.177 180.589C268.616 180.71 273.207 184.232 273.222 189.206C273.237 193.972 273.252 198.739 273.267 203.506C273.282 207.779 273.066 212.057 273.262 216.33C273.434 220.068 273.57 224.87 275.641 228.12C279.289 233.839 287.255 232.237 292.898 231.567L292.959 189.589C292.964 184.343 297.539 180.539 302.361 180.584C307.183 180.63 311.653 184.394 311.658 189.82H311.648Z" fill="#114734"/>
<path d="M492.253 227.379C494.082 232.388 500.189 233.023 505.455 232.066C509.471 231.335 513.275 233.376 514.484 236.908C515.81 240.773 514.162 245.045 510.302 246.552C506.579 248.008 502.668 248.049 498.708 248.104C494.349 248.169 490.293 247.792 486.242 246.32C473.746 241.785 471.972 229.581 472.143 217.105V164.893L490.923 160.389L490.948 180.609L513.497 180.579V196.154L490.933 196.164L490.963 221.318C490.963 223.358 491.598 225.571 492.258 227.379H492.253Z" fill="#114734"/>
<path d="M547.34 236.994C547.466 242.653 542.957 246.754 537.812 246.658C532.667 246.563 528.445 242.244 528.606 236.767V180.595L547.335 180.61V236.994H547.34Z" fill="#114734"/>
<path d="M537.93 172.703C544.13 172.703 549.156 167.677 549.156 161.476C549.156 155.276 544.13 150.25 537.93 150.25C531.729 150.25 526.703 155.276 526.703 161.476C526.703 167.677 531.729 172.703 537.93 172.703Z" fill="#114734"/>
<path d="M242.907 229.833C242.836 229.833 242.771 229.843 242.705 229.843L229.826 229.551C238.619 216.496 239.117 195.569 232.935 181.567C228.45 171.419 220.454 163.785 209.953 160.177C199.492 156.579 188.422 156.489 177.941 160.076C167.657 163.598 159.676 170.915 154.975 180.705C149.004 193.151 148.737 210.404 153.922 223.026C157.247 231.123 162.634 237.931 170.267 242.304C176.833 246.063 184.059 248.235 191.763 248.235C199.467 248.235 242.242 248.25 242.242 248.25C242.463 248.265 242.685 248.285 242.912 248.285C248.006 248.285 252.138 244.154 252.138 239.059C252.138 233.965 248.006 229.833 242.912 229.833H242.907ZM214.528 216.571C211.112 225.969 202.924 231.34 193.239 231.194C183.484 231.053 175.785 225.288 172.605 216.042C169.391 206.675 169.698 193.957 174.691 185.26C178.733 178.221 185.963 174.538 193.99 174.643C201.694 174.749 208.562 178.191 212.462 184.963C217.662 193.992 218.126 206.665 214.528 216.571Z" fill="#90D5AC"/>
<circle cx="242.916" cy="239.135" r="9.32177" fill="#114734"/>
<circle cx="242.916" cy="239.135" r="9.07177" stroke="#124734" stroke-width="0.5" stroke-dasharray="2 2"/>
<path d="M212.957 185.855C213.273 186.453 213.569 187.065 213.846 187.689L213.618 187.791C213.89 188.404 214.142 189.029 214.376 189.665L214.609 189.579C214.843 190.213 215.056 190.858 215.253 191.512L215.017 191.584C215.21 192.227 215.386 192.879 215.544 193.538L215.784 193.479C215.942 194.138 216.083 194.804 216.206 195.475L215.962 195.52C216.083 196.182 216.187 196.849 216.274 197.521L216.521 197.488C216.608 198.161 216.679 198.837 216.733 199.516L216.485 199.535C216.539 200.207 216.576 200.882 216.597 201.558L216.845 201.551C216.865 202.23 216.871 202.91 216.859 203.589L216.609 203.584C216.598 204.26 216.569 204.935 216.525 205.608L216.774 205.624C216.73 206.303 216.669 206.981 216.592 207.654L216.345 207.627C216.268 208.3 216.175 208.97 216.066 209.634L216.312 209.673C216.202 210.346 216.075 211.014 215.933 211.676L215.689 211.624C215.546 212.287 215.387 212.944 215.211 213.592L215.451 213.656C215.272 214.316 215.076 214.967 214.864 215.607L214.628 215.53L214.297 216.486C214.185 216.795 214.067 217.099 213.944 217.398L214.175 217.492C213.922 218.11 213.649 218.709 213.354 219.289L213.133 219.177C212.835 219.765 212.516 220.333 212.177 220.881L212.388 221.011C212.038 221.576 211.667 222.12 211.275 222.642L211.076 222.493C210.683 223.018 210.269 223.52 209.836 223.999L210.021 224.166C209.577 224.657 209.113 225.125 208.63 225.567L208.462 225.385C207.981 225.826 207.481 226.242 206.964 226.634L207.113 226.832C206.588 227.23 206.044 227.602 205.484 227.947L205.354 227.736C204.802 228.078 204.232 228.393 203.647 228.682L203.758 228.904C203.169 229.195 202.566 229.459 201.948 229.696L201.86 229.464C201.256 229.696 200.638 229.901 200.008 230.08L200.075 230.319C199.446 230.498 198.806 230.65 198.154 230.774L198.108 230.529C197.474 230.651 196.829 230.746 196.176 230.814L196.2 231.062C195.552 231.13 194.895 231.173 194.229 231.188L194.225 230.94C194.063 230.944 193.9 230.947 193.737 230.947L193.246 230.944L192.761 230.933C192.599 230.927 192.438 230.92 192.278 230.911L192.265 231.16C191.606 231.125 190.957 231.063 190.318 230.976L190.352 230.729C189.705 230.641 189.071 230.527 188.448 230.387L188.394 230.63C187.752 230.486 187.122 230.314 186.507 230.117L186.583 229.88C185.965 229.682 185.361 229.458 184.772 229.208L184.675 229.437C184.072 229.18 183.484 228.898 182.913 228.589L183.031 228.37C182.464 228.063 181.912 227.731 181.378 227.373L181.239 227.58C180.697 227.217 180.173 226.829 179.667 226.416L179.825 226.224C179.328 225.818 178.848 225.388 178.388 224.935L178.212 225.111C177.75 224.656 177.307 224.178 176.884 223.678L177.074 223.517C176.661 223.028 176.267 222.518 175.894 221.987L175.689 222.13C175.317 221.601 174.964 221.053 174.633 220.484L174.85 220.359C174.528 219.808 174.226 219.238 173.944 218.649L173.719 218.757C173.44 218.175 173.182 217.576 172.944 216.961L173.177 216.871C173.061 216.572 172.95 216.268 172.845 215.961C172.739 215.653 172.638 215.342 172.54 215.027L172.301 215.101C172.107 214.477 171.93 213.841 171.767 213.193L172.008 213.134C171.849 212.504 171.704 211.862 171.574 211.213L171.331 211.261C171.203 210.618 171.089 209.967 170.99 209.31L171.236 209.273C171.14 208.628 171.057 207.976 170.989 207.319L170.742 207.344C170.675 206.69 170.621 206.031 170.583 205.369L170.832 205.355C170.794 204.702 170.77 204.045 170.762 203.387L170.512 203.39C170.503 202.73 170.508 202.069 170.529 201.408L170.53 201.409L170.78 201.417C170.801 200.761 170.837 200.104 170.888 199.45L170.638 199.432C170.689 198.772 170.757 198.114 170.839 197.46L171.086 197.491C171.168 196.838 171.265 196.189 171.379 195.545L171.135 195.501C171.25 194.848 171.381 194.2 171.529 193.56L171.771 193.616C171.92 192.974 172.085 192.339 172.267 191.713L172.028 191.643C172.214 191.004 172.417 190.375 172.638 189.758L172.872 189.843C173.094 189.222 173.336 188.612 173.595 188.016L173.365 187.916C173.573 187.438 173.792 186.969 174.023 186.51L174.219 186.129L174.44 186.245C174.593 185.954 174.749 185.667 174.911 185.385C175.07 185.107 175.235 184.835 175.404 184.568L175.195 184.436C175.543 183.887 175.911 183.36 176.298 182.855L176.495 183.007C176.885 182.499 177.296 182.014 177.724 181.552L177.541 181.383C177.981 180.908 178.44 180.458 178.916 180.032L179.082 180.218C179.557 179.793 180.05 179.393 180.56 179.018L180.411 178.816C180.93 178.434 181.466 178.08 182.017 177.749L182.145 177.962C182.689 177.635 183.248 177.334 183.82 177.059L183.714 176.835C184.292 176.557 184.883 176.304 185.486 176.078L185.573 176.312C186.166 176.09 186.771 175.895 187.386 175.725L187.319 175.484C187.935 175.314 188.562 175.171 189.197 175.052L189.243 175.295C189.864 175.179 190.494 175.088 191.131 175.021L191.105 174.773C191.74 174.708 192.382 174.667 193.029 174.65L193.035 174.899C193.352 174.892 193.671 174.889 193.99 174.894C194.297 174.898 194.602 174.908 194.905 174.923L194.916 174.674C195.536 174.704 196.15 174.756 196.757 174.83L196.728 175.078C197.337 175.153 197.94 175.25 198.533 175.369L198.582 175.126C199.19 175.248 199.788 175.394 200.377 175.562L200.309 175.802C200.897 175.971 201.476 176.163 202.042 176.379L202.13 176.146C202.708 176.366 203.272 176.612 203.825 176.88L203.718 177.103C204.266 177.369 204.801 177.659 205.321 177.973L205.448 177.76C205.975 178.078 206.489 178.419 206.985 178.785L206.838 178.986C207.325 179.346 207.798 179.73 208.253 180.138L208.418 179.952C208.874 180.36 209.313 180.793 209.734 181.248L209.554 181.416C209.963 181.858 210.356 182.323 210.73 182.811L210.927 182.659C211.298 183.142 211.65 183.647 211.984 184.173L211.776 184.306C211.939 184.561 212.096 184.822 212.249 185.088C212.417 185.379 212.58 185.674 212.737 185.973L212.957 185.855Z" stroke="#114734" stroke-width="0.5" stroke-dasharray="2 2"/>
<path d="M236.559 193.715C236.664 194.386 236.757 195.06 236.838 195.735L236.592 195.765C236.673 196.436 236.741 197.11 236.798 197.785L237.045 197.765C237.102 198.442 237.147 199.12 237.18 199.8L236.932 199.812C236.964 200.488 236.986 201.165 236.995 201.842L237.243 201.839C237.252 202.518 237.25 203.198 237.235 203.877L236.986 203.873C236.972 204.55 236.946 205.227 236.908 205.902L237.155 205.916C237.117 206.596 237.07 207.274 237.009 207.951L236.76 207.929C236.698 208.603 236.626 209.276 236.541 209.947L236.787 209.978C236.702 210.653 236.606 211.326 236.497 211.997L236.252 211.958C236.144 212.627 236.024 213.294 235.893 213.957L236.136 214.005C236.003 214.673 235.86 215.337 235.704 215.998L235.462 215.941C235.306 216.602 235.14 217.259 234.961 217.91L235.2 217.975C235.02 218.632 234.828 219.284 234.625 219.932L234.388 219.857C234.184 220.504 233.97 221.146 233.743 221.782L233.977 221.865C233.748 222.507 233.508 223.144 233.256 223.773L233.024 223.682L232.639 224.619C232.505 224.933 232.368 225.245 232.227 225.554L232.452 225.657C232.166 226.283 231.866 226.897 231.55 227.499L231.329 227.383C231.011 227.988 230.677 228.581 230.329 229.161L230.542 229.289C230.189 229.878 229.82 230.454 229.437 231.018L229.231 230.879C228.848 231.442 228.45 231.993 228.038 232.531L228.234 232.683C227.817 233.227 227.386 233.758 226.94 234.275L226.752 234.113C226.308 234.629 225.85 235.131 225.379 235.62L225.558 235.792C225.082 236.285 224.593 236.763 224.091 237.229L223.923 237.047C223.425 237.509 222.913 237.957 222.39 238.392L222.548 238.582C222.022 239.018 221.484 239.441 220.934 239.85L220.785 239.65C220.24 240.054 219.683 240.444 219.115 240.82L219.253 241.028C218.684 241.405 218.103 241.767 217.512 242.115L217.386 241.902C216.802 242.247 216.207 242.576 215.603 242.893L215.717 243.112C215.113 243.428 214.499 243.732 213.875 244.02L213.771 243.794C213.156 244.078 212.531 244.347 211.897 244.604L211.99 244.834C211.359 245.089 210.719 245.33 210.07 245.558L209.988 245.324C209.349 245.548 208.702 245.758 208.047 245.955L208.118 246.193C207.466 246.389 206.806 246.571 206.139 246.739L206.078 246.498C205.422 246.664 204.758 246.816 204.088 246.955L204.138 247.198C203.472 247.336 202.799 247.461 202.12 247.572L202.08 247.327C201.412 247.436 200.737 247.532 200.058 247.615L200.087 247.861C199.411 247.944 198.73 248.014 198.044 248.07L198.024 247.822C197.35 247.878 196.67 247.92 195.985 247.949L195.995 248.197C195.316 248.227 194.632 248.244 193.943 248.248V247.999C193.603 248.001 193.261 248 192.919 247.995C192.581 247.991 192.244 247.984 191.908 247.974L191.9 248.222C191.221 248.201 190.546 248.167 189.878 248.121L189.896 247.873C189.221 247.827 188.551 247.768 187.889 247.696L187.861 247.943C187.185 247.87 186.514 247.784 185.851 247.685L185.887 247.438C185.217 247.339 184.555 247.226 183.899 247.101L183.852 247.346C183.184 247.218 182.525 247.074 181.872 246.92L181.93 246.679C181.272 246.523 180.622 246.355 179.98 246.173L179.912 246.412C179.258 246.227 178.612 246.027 177.975 245.814L178.054 245.579C177.413 245.366 176.781 245.138 176.158 244.897L176.068 245.129C175.435 244.885 174.811 244.628 174.197 244.356L174.299 244.128C173.681 243.855 173.074 243.568 172.477 243.269L172.364 243.49C171.758 243.186 171.162 242.868 170.577 242.536L170.7 242.321C170.114 241.989 169.539 241.643 168.976 241.284L168.841 241.494C168.269 241.13 167.709 240.752 167.16 240.361L167.306 240.159C166.758 239.769 166.222 239.365 165.698 238.948L165.543 239.143C165.014 238.721 164.497 238.286 163.993 237.838L164.158 237.652C163.656 237.207 163.167 236.748 162.691 236.276L162.516 236.451C162.036 235.976 161.568 235.489 161.115 234.988L161.302 234.821C160.852 234.324 160.416 233.814 159.994 233.292L159.8 233.447C159.376 232.923 158.966 232.386 158.57 231.838L158.772 231.693C158.381 231.15 158.003 230.595 157.641 230.029L157.432 230.162C157.068 229.595 156.719 229.017 156.385 228.428L156.603 228.306C156.273 227.724 155.958 227.131 155.658 226.527L155.435 226.638C155.136 226.036 154.853 225.423 154.584 224.801L154.812 224.703C154.68 224.396 154.55 224.085 154.425 223.772C154.303 223.469 154.184 223.163 154.068 222.855L153.836 222.943C153.604 222.328 153.382 221.705 153.172 221.074L153.409 220.997C153.203 220.377 153.006 219.749 152.82 219.115L152.581 219.185C152.397 218.554 152.223 217.917 152.06 217.273L152.302 217.213C152.141 216.578 151.991 215.937 151.851 215.292L151.606 215.345C151.467 214.701 151.337 214.053 151.219 213.4L151.465 213.356C151.348 212.712 151.242 212.063 151.146 211.41L150.898 211.446C150.802 210.795 150.716 210.139 150.642 209.481L150.891 209.454C150.816 208.802 150.752 208.147 150.699 207.49L150.45 207.51C150.397 206.852 150.354 206.193 150.322 205.532L150.571 205.521C150.539 204.864 150.518 204.207 150.508 203.549L150.258 203.552C150.247 202.892 150.248 202.232 150.259 201.571L150.508 201.575C150.519 200.918 150.54 200.26 150.572 199.604L150.322 199.591C150.355 198.931 150.4 198.272 150.454 197.614L150.702 197.635C150.756 196.979 150.821 196.325 150.897 195.672L150.649 195.643C150.726 194.986 150.814 194.332 150.913 193.68L151.159 193.717C151.258 193.066 151.369 192.417 151.49 191.771L151.245 191.726C151.367 191.076 151.5 190.428 151.646 189.785L151.89 189.841C152.035 189.199 152.192 188.56 152.36 187.926L152.119 187.861C152.289 187.222 152.47 186.587 152.664 185.957L152.902 186.031C153.096 185.402 153.303 184.778 153.521 184.159L153.285 184.075C153.505 183.451 153.738 182.833 153.982 182.221L154.214 182.313C154.458 181.702 154.715 181.097 154.984 180.5L154.758 180.397C155.03 179.795 155.315 179.199 155.612 178.611L155.834 178.724C156.131 178.137 156.442 177.558 156.766 176.988L156.549 176.865C156.875 176.29 157.215 175.723 157.568 175.166L157.778 175.3L158.315 174.476C158.508 174.188 158.705 173.904 158.905 173.623L158.702 173.478C158.993 173.07 159.292 172.669 159.599 172.276L159.965 171.815L160.159 171.973C160.594 171.434 161.044 170.91 161.509 170.4L161.324 170.232C161.794 169.718 162.278 169.219 162.776 168.733L162.95 168.911C163.445 168.429 163.954 167.961 164.477 167.509L164.312 167.32C164.838 166.865 165.377 166.424 165.929 165.998L166.081 166.196C166.627 165.775 167.186 165.368 167.757 164.977L167.616 164.771C168.189 164.378 168.773 163.999 169.368 163.637L169.498 163.851C170.087 163.492 170.688 163.147 171.299 162.818L171.18 162.599C171.79 162.27 172.411 161.956 173.042 161.657L173.149 161.883C173.772 161.588 174.404 161.307 175.046 161.041L174.95 160.811C175.59 160.545 176.239 160.293 176.896 160.057L176.981 160.293C177.63 160.06 178.287 159.841 178.951 159.637L178.877 159.398C179.54 159.195 180.21 159.005 180.887 158.83L180.949 159.072C181.616 158.9 182.29 158.742 182.97 158.598L182.918 158.354C183.596 158.21 184.28 158.081 184.97 157.965L185.011 158.211C185.69 158.097 186.375 157.996 187.065 157.909L187.034 157.661C187.721 157.575 188.414 157.503 189.11 157.443L189.132 157.691C189.819 157.633 190.51 157.588 191.205 157.557L191.193 157.308C191.885 157.276 192.581 157.257 193.28 157.252L193.282 157.502C193.628 157.499 193.975 157.5 194.322 157.504C194.655 157.508 194.987 157.514 195.318 157.523L195.325 157.274C195.995 157.294 196.661 157.325 197.323 157.368L197.308 157.617C197.973 157.66 198.635 157.715 199.292 157.781L199.316 157.533C199.983 157.601 200.645 157.681 201.302 157.772L201.269 158.02C201.929 158.112 202.585 158.216 203.234 158.333L203.277 158.087C203.937 158.205 204.591 158.337 205.238 158.48L205.186 158.725C205.836 158.869 206.481 159.026 207.118 159.196L207.181 158.954C207.828 159.127 208.469 159.313 209.103 159.512H209.104L209.029 159.75C209.664 159.949 210.292 160.162 210.912 160.388L210.996 160.153C211.625 160.383 212.247 160.625 212.859 160.882L212.764 161.112C213.377 161.369 213.983 161.64 214.578 161.924L214.686 161.699C215.289 161.987 215.883 162.289 216.468 162.605H216.469L216.35 162.825C216.934 163.141 217.508 163.472 218.072 163.816L218.202 163.603C218.773 163.951 219.332 164.314 219.88 164.691L219.739 164.896C220.286 165.272 220.821 165.662 221.344 166.066L221.496 165.869C222.024 166.277 222.54 166.699 223.043 167.136L222.88 167.325C223.38 167.759 223.868 168.207 224.342 168.669L224.515 168.491C224.991 168.956 225.455 169.435 225.905 169.929L225.722 170.096C226.166 170.583 226.598 171.086 227.016 171.602L227.209 171.444C227.627 171.961 228.03 172.492 228.42 173.036L228.218 173.181C228.41 173.449 228.599 173.722 228.784 173.997C228.973 174.278 229.158 174.561 229.34 174.846L229.549 174.711C229.915 175.284 230.266 175.866 230.605 176.456L230.391 176.58C230.728 177.166 231.051 177.76 231.361 178.361L231.582 178.246C231.894 178.85 232.193 179.46 232.479 180.078L232.253 180.184C232.537 180.797 232.808 181.417 233.065 182.043L233.295 181.947C233.554 182.575 233.798 183.21 234.031 183.85L233.799 183.936C234.03 184.57 234.248 185.211 234.454 185.856L234.691 185.78C234.898 186.427 235.09 187.079 235.271 187.735L235.031 187.802C235.211 188.453 235.378 189.109 235.533 189.769L235.776 189.712C235.932 190.373 236.074 191.038 236.204 191.706L235.96 191.754C236.09 192.418 236.207 193.085 236.312 193.754L236.559 193.715Z" stroke="#114734" stroke-width="0.5" stroke-dasharray="2 2"/>
<path d="M233.75 150.25L233.75 248.251" stroke="#114734" stroke-width="0.5" stroke-dasharray="2 2"/>
<path d="M252.25 150.25L252.25 248.25" stroke="#114734" stroke-width="0.5" stroke-dasharray="2 2"/>
</svg>
